<svg width="48" height="48" viewBox="0 0 48 48" fill="none" xmlns="http://www.w3.org/2000/svg">
<path d="M23.7391 0C10.6494 0 0 10.6494 0 23.7391C0 36.8288 10.6494 47.4783 23.7391 47.4783C36.8288 47.4783 47.4783 36.8288 47.4783 23.7391C47.4783 10.6494 36.8288 0 23.7391 0ZM29.6428 24.5749H25.7807C25.7807 30.7454 25.7807 38.3425 25.7807 38.3425H20.0577C20.0577 38.3425 20.0577 30.819 20.0577 24.5749H17.3372V19.7096H20.0577V16.5627C20.0577 14.3089 21.1286 10.7871 25.8333 10.7871L30.0722 10.8034V15.5262C30.0722 15.5262 27.4952 15.5262 26.9941 15.5262C26.493 15.5262 25.7816 15.7767 25.7816 16.8515V19.7106H30.142L29.6428 24.5749Z" fill="white"/>
</svg>
