<svg width="48" height="48" viewBox="0 0 48 48" fill="none" xmlns="http://www.w3.org/2000/svg">
<path d="M29.2013 13.5098H18.5864C17.0424 13.5098 15.6914 13.9923 14.8229 14.8608C13.9544 15.7292 13.4719 17.0802 13.4719 18.6242V29.2391C13.4719 30.7831 13.9544 32.1341 14.9194 33.0991C15.8844 33.9676 17.1389 34.4501 18.6829 34.4501H29.2013C30.7453 34.4501 32.0963 33.9676 32.9648 33.0991C33.9298 32.2306 34.4123 30.8796 34.4123 29.3356V18.7207C34.4123 17.1767 33.9298 15.9222 33.0613 14.9573C32.0963 13.9923 30.8418 13.5098 29.2013 13.5098ZM23.8938 30.4936C20.2269 30.4936 17.3319 27.5021 17.3319 23.9317C17.3319 20.2647 20.3234 17.3697 23.8938 17.3697C27.4643 17.3697 30.5523 20.2647 30.5523 23.9317C30.5523 27.5986 27.5608 30.4936 23.8938 30.4936ZM30.7453 18.6242C29.8768 18.6242 29.2013 17.9487 29.2013 17.0802C29.2013 16.2117 29.8768 15.5362 30.7453 15.5362C31.6138 15.5362 32.2893 16.2117 32.2893 17.0802C32.2893 17.9487 31.6138 18.6242 30.7453 18.6242Z" fill="white"/>
<path d="M24.0865 0C10.9626 0 0.347656 10.6149 0.347656 23.7388C0.347656 36.8627 10.9626 47.4776 24.0865 47.4776C37.2104 47.4776 47.8253 36.8627 47.8253 23.7388C47.9218 10.6149 37.2104 0 24.0865 0ZM36.7279 29.3358C36.7279 31.5552 35.9559 33.4852 34.6049 34.8362C33.2539 36.1872 31.3239 36.8627 29.2009 36.8627H18.6825C16.5595 36.8627 14.6295 36.1872 13.2786 34.8362C11.8311 33.4852 11.1556 31.5552 11.1556 29.3358V18.7208C11.1556 14.2819 14.147 11.1939 18.6825 11.1939H29.2974C31.5169 11.1939 33.3504 11.9659 34.7014 13.3169C36.0524 14.6679 36.7279 16.5014 36.7279 18.7208V29.3358Z" fill="white"/>
</svg>
