<svg width="62" height="100" viewBox="0 0 62 100" fill="none" xmlns="http://www.w3.org/2000/svg">
<g clip-path="url(#clip0_1_293)">
<path d="M61.0781 64.5458L31.1011 43.6616L1.12054 64.5458V87.6144L21.0123 73.7552V100H41.1899V73.7587L61.0781 87.6144V64.5458Z" fill="#FF0000"/>
<path d="M53.2301 42.0354H50.6548V13.8141H53.2301V42.0354ZM61.0746 14.9411C61.0746 10.3814 58.1543 7.6699 51.9721 7.6699C45.7899 7.6699 42.8068 10.3814 42.8068 14.9411V40.9327C42.8068 45.4924 45.7272 48.2004 51.9721 48.2004C58.217 48.2004 61.0746 45.4889 61.0746 40.9327V14.9411Z" fill="white"/>
<path d="M8.9685 13.8141H11.5438V34.1921H8.9685V13.8141ZM19.3883 15.5201C19.3883 11.0368 17.7295 8.33218 11.5647 8.33218H0.921875L1.124 12.1186V43.7379L0.921875 47.5243H9.17062L8.9685 43.7379V39.681H11.5647C17.733 39.681 19.3883 36.9764 19.3883 32.4931V15.5236V15.5201Z" fill="white"/>
<path d="M32.4079 0H21.765L21.9671 3.78641V47.5208L29.8116 42.0527V5.48544H32.387V24.1401L30.5679 25.9501L32.387 27.7635V42.0562L40.2315 47.5208V27.7635L38.4124 25.9501L40.2315 24.1401V7.18793C40.2315 2.70458 38.5727 0 32.4079 0Z" fill="white"/>
</g>
<defs>
<clipPath id="clip0_1_293">
<rect width="60.1562" height="100" fill="white" transform="translate(0.921875)"/>
</clipPath>
</defs>
</svg>
