<svg width="48" height="48" viewBox="0 0 48 48" fill="none" xmlns="http://www.w3.org/2000/svg">
<path d="M24.1739 0C11.0632 0 0.434814 10.6284 0.434814 23.7391C0.434814 36.8499 11.0632 47.4783 24.1739 47.4783C37.2847 47.4783 47.9131 36.8499 47.9131 23.7391C47.9131 10.6284 37.2847 0 24.1739 0ZM36.1937 21.549C33.6729 21.549 31.2202 20.7309 29.3316 19.3466L29.3166 28.7588C29.3151 30.5029 28.7816 32.205 27.7876 33.638C26.7935 35.071 25.3861 36.1667 23.753 36.779C22.12 37.3913 20.3391 37.491 18.6479 37.0649C16.9568 36.6387 15.4358 35.7069 14.288 34.3938C13.1401 33.0807 12.4201 31.4488 12.2238 29.7159C12.0276 27.9829 12.3645 26.2313 13.1896 24.6948C14.0148 23.1583 15.2889 21.91 16.8419 21.1165C18.3949 20.3229 20.153 20.0218 21.8816 20.2535V24.8756C21.0662 24.6347 20.1957 24.6567 19.3934 24.9384C18.5912 25.2201 17.898 25.7472 17.4122 26.445C16.9264 27.1427 16.6726 27.9758 16.6869 28.8259C16.7011 29.676 16.9826 30.5001 17.4915 31.1812C18.0005 31.8624 18.7109 32.366 19.5221 32.6206C20.3333 32.8753 21.2041 32.8681 22.011 32.6C22.8179 32.3319 23.5199 31.8166 24.0174 31.1272C24.515 30.4377 24.7828 29.6091 24.783 28.7588V10.1386H29.5378C29.5378 11.0126 29.7099 11.8781 30.0444 12.6856C30.3789 13.4931 30.8692 14.2268 31.4872 14.8448C32.1052 15.4628 32.8389 15.9531 33.6464 16.2875C34.4539 16.622 35.3194 16.7941 36.1935 16.7941L36.1937 21.549Z" fill="white"/>
</svg>
