<svg width="48" height="48" viewBox="0 0 48 48" fill="none" xmlns="http://www.w3.org/2000/svg">
<path fill-rule="evenodd" clip-rule="evenodd" d="M24.2609 0C37.3628 0 48 10.6372 48 23.7391C48 36.8411 37.3628 47.4783 24.2609 47.4783C11.1589 47.4783 0.521729 36.8411 0.521729 23.7391C0.521729 10.6372 11.1589 0 24.2609 0ZM38.4779 16.5968C38.1367 15.32 37.1313 14.3147 35.8545 13.9734C33.5402 13.3533 24.2609 13.3533 24.2609 13.3533C24.2609 13.3533 14.9815 13.3533 12.6672 13.9734C11.3907 14.3147 10.3851 15.32 10.0438 16.5968C9.4239 18.9109 9.4239 23.7393 9.4239 23.7393C9.4239 23.7393 9.4239 28.5675 10.0438 30.8815C10.3851 32.1583 11.3907 33.1639 12.6672 33.5051C14.9815 34.125 24.2609 34.125 24.2609 34.125C24.2609 34.125 33.5402 34.125 35.8545 33.5051C37.1313 33.1639 38.1367 32.1583 38.4779 30.8815C39.0978 28.5675 39.0978 23.7393 39.0978 23.7393C39.0978 23.7393 39.0978 18.9109 38.4779 16.5968ZM21.2934 28.1905V19.2881L29.0027 23.7393L21.2934 28.1905Z" fill="white"/>
</svg>
