<?xml version="1.0" standalone="no"?>
<!DOCTYPE svg PUBLIC "-//W3C//DTD SVG 1.1//EN" "http://www.w3.org/Graphics/SVG/1.1/DTD/svg11.dtd" >
<svg xmlns="http://www.w3.org/2000/svg" xmlns:xlink="http://www.w3.org/1999/xlink" version="1.1">
<metadata>
Created by FontForge 20201107 at Fri Mar 28 21:13:59 2025
 By 
Copyright (c) 2024 by atipo. All rights reserved.
</metadata>
<defs>
<font id="ROUND8-SEVEN" horiz-adv-x="876" >
  <font-face 
    font-family="ROUND 8 SEVEN"
    font-weight="700"
    font-stretch="normal"
    units-per-em="2048"
    panose-1="0 0 0 0 0 0 0 0 0 0"
    ascent="1536"
    descent="-512"
    x-height="1434"
    cap-height="1434"
    bbox="-88 -502 2533 1905"
    underline-thickness="102"
    underline-position="-255"
    unicode-range="U+0020-2265"
  />
<missing-glyph horiz-adv-x="1075" 
 />
    <glyph glyph-name=".notdef" horiz-adv-x="1075" 
 />
    <glyph glyph-name=".null" horiz-adv-x="0" 
 />
    <glyph glyph-name="nonmarkingreturn" horiz-adv-x="682" 
 />
    <glyph glyph-name="space" unicode=" " horiz-adv-x="143" 
 />
    <glyph glyph-name="space" unicode="&#xa0;" horiz-adv-x="143" 
 />
    <glyph glyph-name="exclam" unicode="!" horiz-adv-x="438" 
d="M59 459l-34 411v564h389v-564l-37 -411h-318zM25 0v410h389v-410h-389z" />
    <glyph glyph-name="quotedbl" unicode="&#x22;" horiz-adv-x="774" 
d="M362 831h-337v603h337v-603zM412 831v603h338v-603h-338z" />
    <glyph glyph-name="numbersign" unicode="#" horiz-adv-x="794" 
d="M340 207l37 239h-49l-37 -239h-266l36 239h-36v271h77l9 49h-52v270h93l32 221h269l-35 -221h49l33 221h268l-35 -221h37v-270h-78l-8 -49h47v-271h-88l-37 -239h-266zM369 717h49l8 49h-49z" />
    <glyph glyph-name="dollar" unicode="$" horiz-adv-x="868" 
d="M268 -102v120q-112 39 -177.5 131.5t-65.5 225.5v100h385v-113h49v144l-244 72q-43 13 -70.5 26t-58.5 38t-46 65t-15 96v262q0 132 66.5 223t178.5 133v115h336v-117q110 -41 174 -132t64 -222v-113h-385v125h-49v-147l260 -76q174 -53 174 -209v-270
q0 -129 -65.5 -220.5t-174.5 -131.5v-125h-336z" />
    <glyph glyph-name="percent" unicode="%" horiz-adv-x="1435" 
d="M399 0l340 1434h297l-340 -1434h-297zM25 999v175q0 120 79.5 197t196.5 77q116 0 195 -77t79 -197v-175q0 -121 -79 -198.5t-195 -77.5q-117 0 -196.5 77.5t-79.5 198.5zM274 987h50v197h-50v-197zM860 262v174q0 120 80 197.5t197 77.5q116 0 195 -77.5t79 -197.5v-174
q0 -121 -79 -198.5t-195 -77.5q-117 0 -197 77.5t-80 198.5zM1110 250h49v196h-49v-196z" />
    <glyph glyph-name="ampersand" unicode="&#x26;" horiz-adv-x="940" 
d="M438 -14q-172 0 -292.5 116t-120.5 297v119q0 123 57 217q-55 96 -55 213v86q0 181 120.5 297.5t292.5 116.5t293 -116.5t121 -297.5v-43h-389v58h-49v-115h499v-402h-63v-133q0 -120 -56.5 -215.5t-151 -146.5t-206.5 -51zM414 385h49v147h-49v-147z" />
    <glyph glyph-name="quotesingle" unicode="'" horiz-adv-x="387" 
d="M25 831v603h337v-603h-337z" />
    <glyph glyph-name="parenleft" unicode="(" horiz-adv-x="477" 
d="M25 1274q0 189 116 301.5t297 112.5h15v-369h-50v-1204h50v-369h-15q-181 0 -297 112.5t-116 301.5v1114z" />
    <glyph glyph-name="parenright" unicode=")" horiz-adv-x="477" 
d="M453 1274v-1114q0 -189 -116.5 -301.5t-297.5 -112.5h-14v369h49v1204h-49v369h14q181 0 297.5 -112.5t116.5 -301.5z" />
    <glyph glyph-name="asterisk" unicode="*" 
d="M25 899v244h178l-101 145l201 142l135 -195l137 195l201 -140l-102 -147h178v-244h-178l100 -145l-201 -142l-135 195l-137 -195l-201 140l103 147h-178z" />
    <glyph glyph-name="plus" unicode="+" 
d="M289 309v264h-264v297h264v265h297v-265h266v-297h-266v-264h-297z" />
    <glyph glyph-name="comma" unicode="," horiz-adv-x="438" 
d="M25 -319l84 319h-84v410h389v-410l-84 -319h-305z" />
    <glyph glyph-name="hyphen" unicode="-" horiz-adv-x="548" 
d="M25 543v317h499v-317h-499z" />
    <glyph glyph-name="period" unicode="." horiz-adv-x="438" 
d="M25 0v410h389v-410h-389z" />
    <glyph glyph-name="slash" unicode="/" horiz-adv-x="796" 
d="M25 0l366 1434h381l-369 -1434h-378z" />
    <glyph glyph-name="zero" unicode="0" 
d="M463 1049h-49v-664h49v664zM25 399v635q0 181 120.5 297.5t292.5 116.5t293 -116.5t121 -297.5v-635q0 -120 -56.5 -215.5t-151 -146.5t-206.5 -51q-172 0 -292.5 116t-120.5 297z" />
    <glyph glyph-name="one" unicode="1" horiz-adv-x="487" 
d="M74 0v1034h-49v400h438v-1434h-389z" />
    <glyph glyph-name="two" unicode="2" horiz-adv-x="868" 
d="M410 940h-385v125q0 179 115.5 281t293.5 102q112 0 204 -43.5t149 -132t57 -207.5v-268q0 -203 -205 -242l-229 -43v-141h49v110h381v-481h-815v653q0 86 47.5 140.5t126.5 68.5l260 45v142h-49v-109z" />
    <glyph glyph-name="three" unicode="3" horiz-adv-x="868" 
d="M434 -14q-178 0 -293.5 102t-115.5 281v112h385v-125h49v174h-234v373h234v174h-49v-125h-385v113q0 179 115.5 281t293.5 102q112 0 204 -43.5t149 -132t57 -207.5v-197q0 -90 -51 -151q51 -61 51 -152v-196q0 -119 -57 -207.5t-149 -132t-204 -43.5z" />
    <glyph glyph-name="four" unicode="4" 
d="M852 1434v-1434h-381v188h-446v236l168 1010h659zM389 588h82v444h-20z" />
    <glyph glyph-name="five" unicode="5" 
d="M438 -14q-172 0 -292.5 116t-120.5 297v82h389v-96h49v233h-49v-88h-389v904h806v-400h-417v-49h73q161 0 263 -93t102 -233v-260q0 -120 -56.5 -215.5t-151 -146.5t-206.5 -51z" />
    <glyph glyph-name="six" unicode="6" 
d="M438 -14q-172 0 -292.5 116t-120.5 297v635q0 181 120.5 297.5t292.5 116.5t293 -116.5t121 -297.5v-82h-389v97h-49v-146h73q159 0 262 -99.5t103 -240.5v-164q0 -120 -56.5 -215.5t-151 -146.5t-206.5 -51zM414 385h49v158h-49v-158z" />
    <glyph glyph-name="seven" unicode="7" 
d="M119 0l338 1034h-66v-82h-366v482h827v-508l-297 -926h-436z" />
    <glyph glyph-name="eight" unicode="8" 
d="M438 -14q-172 0 -292.5 116t-120.5 297v86q0 132 65 232q-65 100 -65 231v86q0 181 120.5 297.5t292.5 116.5t293 -116.5t121 -297.5v-86q0 -130 -66 -231q66 -101 66 -232v-86q0 -120 -56.5 -215.5t-151 -146.5t-206.5 -51zM414 385h49v137h-49v-137zM414 911h49v138
h-49v-138z" />
    <glyph glyph-name="nine" unicode="9" 
d="M438 -14q-172 0 -292.5 116t-120.5 297v82h389v-96h49v145h-74q-159 0 -261.5 99.5t-102.5 240.5v164q0 181 120.5 297.5t292.5 116.5t293 -116.5t121 -297.5v-635q0 -120 -56.5 -215.5t-151 -146.5t-206.5 -51zM414 891h49v158h-49v-158z" />
    <glyph glyph-name="colon" unicode=":" horiz-adv-x="438" 
d="M25 680v410h389v-410h-389zM25 0v410h389v-410h-389z" />
    <glyph glyph-name="semicolon" unicode=";" horiz-adv-x="446" 
d="M25 -319l84 319h-84v410h389v-410l-84 -319h-305zM33 680v410h389v-410h-389z" />
    <glyph glyph-name="less" unicode="&#x3c;" 
d="M25 932l827 266v-311l-565 -164l565 -164v-311l-827 266v418z" />
    <glyph glyph-name="equal" unicode="=" 
d="M25 748v296h827v-296h-827zM25 401v297h827v-297h-827z" />
    <glyph glyph-name="greater" unicode="&#x3e;" 
d="M852 514l-827 -266v311l565 164l-565 164v311l827 -266v-418z" />
    <glyph glyph-name="question" unicode="?" horiz-adv-x="868" 
d="M410 922h-385v127q0 180 117.5 289.5t291.5 109.5t292 -109.5t118 -289.5v-220q0 -60 -16.5 -102.5t-39 -64.5t-63.5 -50l-113 -75v-78h-385v153q0 69 20.5 113t69.5 76l142 90v158h-49v-127zM227 0v410h389v-410h-389z" />
    <glyph glyph-name="at" unicode="@" 
d="M436 0q-171 0 -291 116.5t-120 297.5v606q0 181 120.5 297.5t292.5 116.5h414v-856q0 -115 -73.5 -194t-184.5 -79q-114 0 -194.5 79.5t-80.5 193.5v280q0 113 78.5 191.5t196.5 78.5h16v50h-340v-922h582v-256h-416zM561 592h49v285h-49v-285z" />
    <glyph glyph-name="A" unicode="A" horiz-adv-x="905" 
d="M12 0l76 1434h729l76 -1434h-377l-14 299h-99l-14 -299h-377zM422 657h61l-20 408h-21z" />
    <glyph glyph-name="B" unicode="B" 
d="M25 1434h413q172 0 293 -116.5t121 -297.5v-59q0 -135 -76 -244q76 -110 76 -246v-59q0 -179 -120.5 -295.5t-291.5 -116.5h-415v1434zM414 358h49v189h-49v-189zM414 885h49v190h-49v-190z" />
    <glyph glyph-name="C" unicode="C" 
d="M463 741v308h-49v-664h49v307h389v-293q0 -120 -56.5 -215.5t-151 -146.5t-206.5 -51q-172 0 -292.5 116t-120.5 297v635q0 181 120.5 297.5t292.5 116.5t293 -116.5t121 -297.5v-293h-389z" />
    <glyph glyph-name="D" unicode="D" 
d="M25 0v1434h413q172 0 293 -116t121 -296v-608q0 -181 -121 -297.5t-293 -116.5h-413zM414 379h49v696h-49v-696z" />
    <glyph glyph-name="E" unicode="E" horiz-adv-x="589" 
d="M25 0v1434h540v-369h-151v-172h151v-358h-151v-166h151v-369h-540z" />
    <glyph glyph-name="F" unicode="F" horiz-adv-x="589" 
d="M25 0v1434h540v-379h-151v-160h151v-360h-151v-535h-389z" />
    <glyph glyph-name="G" unicode="G" 
d="M25 1034q0 181 120.5 297.5t292.5 116.5t293 -116.5t121 -297.5v-188h-389v203h-49v-664h49v119h-25v297h414v-402q0 -120 -56.5 -215.5t-151 -146.5t-206.5 -51q-172 0 -292.5 116t-120.5 297v635z" />
    <glyph glyph-name="H" unicode="H" 
d="M463 0v535h-49v-535h-389v1434h389v-541h49v541h389v-1434h-389z" />
    <glyph glyph-name="I" unicode="I" horiz-adv-x="438" 
d="M25 0v1434h389v-1434h-389z" />
    <glyph glyph-name="J" unicode="J" horiz-adv-x="487" 
d="M74 1434h389v-1020q0 -187 -110 -300.5t-304 -113.5h-24v399h49v1035z" />
    <glyph glyph-name="K" unicode="K" 
d="M414 0h-389v1434h389v-521h20l35 521h383l-37 -715l37 -719h-383l-35 524h-20v-524z" />
    <glyph glyph-name="L" unicode="L" horiz-adv-x="577" 
d="M25 0v1434h389v-1035h151v-399h-540z" />
    <glyph glyph-name="M" unicode="M" horiz-adv-x="1605" 
d="M25 0v1434h706l62 -1076h20l61 1076h707v-1434h-358v1075h-21l-65 -1075h-668l-66 1075h-20v-1075h-358z" />
    <glyph glyph-name="N" unicode="N" horiz-adv-x="1196" 
d="M25 0v1434h684l63 -1084h21v1084h378v-1434h-682l-65 1075h-21v-1075h-378z" />
    <glyph glyph-name="O" unicode="O" 
d="M463 1049h-49v-664h49v664zM25 399v635q0 181 120.5 297.5t292.5 116.5t293 -116.5t121 -297.5v-635q0 -120 -56.5 -215.5t-151 -146.5t-206.5 -51q-172 0 -292.5 116t-120.5 297z" />
    <glyph glyph-name="P" unicode="P" 
d="M25 1434h413q172 0 293 -116.5t121 -297.5v-215q0 -119 -56.5 -214.5t-150.5 -147.5t-205 -52h-26v-391h-389v1434zM414 750h49v325h-49v-325z" />
    <glyph glyph-name="Q" unicode="Q" 
d="M463 1049h-49v-650h49v650zM25 414v620q0 181 120.5 297.5t292.5 116.5t293 -116.5t121 -297.5v-620q0 -27 -2 -39h27v-375h-437h-2q-172 0 -292.5 116.5t-120.5 297.5z" />
    <glyph glyph-name="R" unicode="R" 
d="M438 1434q172 0 293 -116t121 -296v-133q0 -41 -16 -108.5t-39 -104.5q22 -34 38.5 -92.5t16.5 -124.5v-459h-389v475h-49v-475h-389v1434h413zM414 834h49v241h-49v-241z" />
    <glyph glyph-name="S" unicode="S" horiz-adv-x="868" 
d="M434 -8q-178 0 -293.5 102t-115.5 281v100h385v-113h49v144l-244 72q-43 13 -70.5 26t-58.5 38t-46 65t-15 96v262q0 178 118 280.5t291 102.5q178 0 294 -102t116 -281v-113h-385v125h-49v-147l260 -76q174 -53 174 -209v-270q0 -119 -57 -207.5t-149 -132t-204 -43.5z
" />
    <glyph glyph-name="T" unicode="T" horiz-adv-x="692" 
d="M150 0v1051h-125v383h643v-383h-129v-1051h-389z" />
    <glyph glyph-name="U" unicode="U" 
d="M463 1434h389v-1035q0 -120 -56.5 -215.5t-151 -146.5t-206.5 -51q-172 0 -292.5 116t-120.5 297v1035h389v-1049h49v1049z" />
    <glyph glyph-name="V" unicode="V" horiz-adv-x="905" 
d="M12 1434h377l53 -1065h21l53 1065h377l-76 -1434h-729z" />
    <glyph glyph-name="W" unicode="W" horiz-adv-x="1601" 
d="M12 1434h383l54 -1076h20l23 1076h618l23 -1076h20l53 1076h383l-80 -1434h-669l-29 1083h-20l-29 -1083h-670z" />
    <glyph glyph-name="X" unicode="X" horiz-adv-x="905" 
d="M12 1434h377l53 -510h21l53 510h377l-57 -711l57 -721h-377l-53 522h-21l-53 -522h-377l58 721z" />
    <glyph glyph-name="Y" unicode="Y" horiz-adv-x="864" 
d="M238 0v412h-166l-60 1022h377l33 -674h20l33 674h377l-59 -1022h-166v-412h-389z" />
    <glyph glyph-name="Z" unicode="Z" horiz-adv-x="712" 
d="M25 0v358l260 717h-260v359h663v-359l-258 -717h258v-358h-663z" />
    <glyph glyph-name="bracketleft" unicode="[" horiz-adv-x="477" 
d="M25 -254v1942h428v-369h-50v-1204h50v-369h-428z" />
    <glyph glyph-name="backslash" unicode="\" horiz-adv-x="796" 
d="M772 0h-379l-368 1434h381z" />
    <glyph glyph-name="bracketright" unicode="]" horiz-adv-x="477" 
d="M453 -254h-428v369h49v1204h-49v369h428v-1942z" />
    <glyph glyph-name="asciicircum" unicode="^" horiz-adv-x="823" 
d="M25 635l92 799h590l92 -799h-326l-51 512h-21l-51 -512h-325z" />
    <glyph glyph-name="underscore" unicode="_" horiz-adv-x="671" 
d="M25 -356v307h622v-307h-622z" />
    <glyph glyph-name="grave" unicode="`" horiz-adv-x="401" 
d="M377 1151h-283l-69 307h321z" />
    <glyph glyph-name="a" unicode="a" horiz-adv-x="905" 
d="M12 0l76 1434h729l76 -1434h-377l-14 299h-99l-14 -299h-377zM422 657h61l-20 408h-21z" />
    <glyph glyph-name="b" unicode="b" 
d="M25 1434h413q172 0 293 -116.5t121 -297.5v-59q0 -135 -76 -244q76 -110 76 -246v-59q0 -179 -120.5 -295.5t-291.5 -116.5h-415v1434zM414 358h49v189h-49v-189zM414 885h49v190h-49v-190z" />
    <glyph glyph-name="c" unicode="c" 
d="M463 741v308h-49v-664h49v307h389v-293q0 -120 -56.5 -215.5t-151 -146.5t-206.5 -51q-172 0 -292.5 116t-120.5 297v635q0 181 120.5 297.5t292.5 116.5t293 -116.5t121 -297.5v-293h-389z" />
    <glyph glyph-name="d" unicode="d" 
d="M25 0v1434h413q172 0 293 -116t121 -296v-608q0 -181 -121 -297.5t-293 -116.5h-413zM414 379h49v696h-49v-696z" />
    <glyph glyph-name="e" unicode="e" horiz-adv-x="589" 
d="M25 0v1434h540v-369h-151v-172h151v-358h-151v-166h151v-369h-540z" />
    <glyph glyph-name="f" unicode="f" horiz-adv-x="589" 
d="M25 0v1434h540v-379h-151v-160h151v-360h-151v-535h-389z" />
    <glyph glyph-name="g" unicode="g" 
d="M25 1034q0 181 120.5 297.5t292.5 116.5t293 -116.5t121 -297.5v-188h-389v203h-49v-664h49v119h-25v297h414v-402q0 -120 -56.5 -215.5t-151 -146.5t-206.5 -51q-172 0 -292.5 116t-120.5 297v635z" />
    <glyph glyph-name="h" unicode="h" 
d="M463 0v535h-49v-535h-389v1434h389v-541h49v541h389v-1434h-389z" />
    <glyph glyph-name="i" unicode="i" horiz-adv-x="438" 
d="M25 0v1434h389v-1434h-389z" />
    <glyph glyph-name="j" unicode="j" horiz-adv-x="487" 
d="M74 1434h389v-1020q0 -187 -110 -300.5t-304 -113.5h-24v399h49v1035z" />
    <glyph glyph-name="k" unicode="k" 
d="M414 0h-389v1434h389v-521h20l35 521h383l-37 -715l37 -719h-383l-35 524h-20v-524z" />
    <glyph glyph-name="l" unicode="l" horiz-adv-x="577" 
d="M25 0v1434h389v-1035h151v-399h-540z" />
    <glyph glyph-name="m" unicode="m" horiz-adv-x="1605" 
d="M25 0v1434h706l62 -1076h20l61 1076h707v-1434h-358v1075h-21l-65 -1075h-668l-66 1075h-20v-1075h-358z" />
    <glyph glyph-name="n" unicode="n" horiz-adv-x="1196" 
d="M25 0v1434h684l63 -1084h21v1084h378v-1434h-682l-65 1075h-21v-1075h-378z" />
    <glyph glyph-name="o" unicode="o" 
d="M463 1049h-49v-664h49v664zM25 399v635q0 181 120.5 297.5t292.5 116.5t293 -116.5t121 -297.5v-635q0 -120 -56.5 -215.5t-151 -146.5t-206.5 -51q-172 0 -292.5 116t-120.5 297z" />
    <glyph glyph-name="p" unicode="p" 
d="M25 1434h413q172 0 293 -116.5t121 -297.5v-215q0 -119 -56.5 -214.5t-150.5 -147.5t-205 -52h-26v-391h-389v1434zM414 750h49v325h-49v-325z" />
    <glyph glyph-name="q" unicode="q" 
d="M463 1049h-49v-650h49v650zM25 414v620q0 181 120.5 297.5t292.5 116.5t293 -116.5t121 -297.5v-620q0 -27 -2 -39h27v-375h-437h-2q-172 0 -292.5 116.5t-120.5 297.5z" />
    <glyph glyph-name="r" unicode="r" 
d="M438 1434q172 0 293 -116t121 -296v-133q0 -41 -16 -108.5t-39 -104.5q22 -34 38.5 -92.5t16.5 -124.5v-459h-389v475h-49v-475h-389v1434h413zM414 834h49v241h-49v-241z" />
    <glyph glyph-name="s" unicode="s" horiz-adv-x="868" 
d="M434 -8q-178 0 -293.5 102t-115.5 281v100h385v-113h49v144l-244 72q-43 13 -70.5 26t-58.5 38t-46 65t-15 96v262q0 178 118 280.5t291 102.5q178 0 294 -102t116 -281v-113h-385v125h-49v-147l260 -76q174 -53 174 -209v-270q0 -119 -57 -207.5t-149 -132t-204 -43.5z
" />
    <glyph glyph-name="t" unicode="t" horiz-adv-x="692" 
d="M150 0v1051h-125v383h643v-383h-129v-1051h-389z" />
    <glyph glyph-name="u" unicode="u" 
d="M463 1434h389v-1035q0 -120 -56.5 -215.5t-151 -146.5t-206.5 -51q-172 0 -292.5 116t-120.5 297v1035h389v-1049h49v1049z" />
    <glyph glyph-name="v" unicode="v" horiz-adv-x="905" 
d="M12 1434h377l53 -1065h21l53 1065h377l-76 -1434h-729z" />
    <glyph glyph-name="w" unicode="w" horiz-adv-x="1601" 
d="M12 1434h383l54 -1076h20l23 1076h618l23 -1076h20l53 1076h383l-80 -1434h-669l-29 1083h-20l-29 -1083h-670z" />
    <glyph glyph-name="x" unicode="x" horiz-adv-x="905" 
d="M12 1434h377l53 -510h21l53 510h377l-57 -711l57 -721h-377l-53 522h-21l-53 -522h-377l58 721z" />
    <glyph glyph-name="y" unicode="y" horiz-adv-x="864" 
d="M238 0v412h-166l-60 1022h377l33 -674h20l33 674h377l-59 -1022h-166v-412h-389z" />
    <glyph glyph-name="z" unicode="z" horiz-adv-x="712" 
d="M25 0v358l260 717h-260v359h663v-359l-258 -717h258v-358h-663z" />
    <glyph glyph-name="braceleft" unicode="{" horiz-adv-x="518" 
d="M66 1274q0 189 116 301.5t297 112.5h15v-369h-50v-1204h50v-369h-15q-181 0 -297 112.5t-116 301.5v375h-41v358h41v381z" />
    <glyph glyph-name="bar" unicode="|" horiz-adv-x="407" 
d="M25 -205v1782h358v-1782h-358z" />
    <glyph glyph-name="braceright" unicode="}" horiz-adv-x="518" 
d="M453 1274v-381h41v-358h-41v-375q0 -189 -116.5 -301.5t-297.5 -112.5h-14v369h49v1204h-49v369h14q181 0 297.5 -112.5t116.5 -301.5z" />
    <glyph glyph-name="asciitilde" unicode="~" horiz-adv-x="649" 
d="M311 627l-53 45h-20v-84h-213v137q0 80 54.5 135t135.5 55q67 0 123 -45l53 -43h21v82h213v-139q0 -78 -55.5 -133t-133.5 -55q-71 0 -125 45z" />
    <glyph glyph-name="exclamdown" unicode="&#xa1;" horiz-adv-x="438" 
d="M59 975h318l37 -412v-563h-389v563zM25 1024v410h389v-410h-389z" />
    <glyph glyph-name="cent" unicode="&#xa2;" 
d="M272 0v215q-112 45 -179.5 146.5t-67.5 234.5v242q0 133 67.5 234.5t179.5 146.5v215h336v-217q110 -47 177 -147t67 -232v-97h-389v111h-49v-270h49v110h389v-96q0 -132 -67 -232t-177 -147v-217h-336z" />
    <glyph glyph-name="sterling" unicode="&#xa3;" horiz-adv-x="884" 
d="M33 1034q0 181 120.5 297.5t292.5 116.5t293 -116.5t121 -297.5v-143h-389v158h-49v-207h438v-338h-438v-146h49v97h389v-455h-848v358h21v146h-21v338h21v192z" />
    <glyph glyph-name="currency" unicode="&#xa4;" horiz-adv-x="1011" 
d="M530 877h-49v-271h49v271zM25 387l90 90q-23 74 -23 144v241q0 70 23 144l-90 90l208 211l76 -78q89 47 197 47q107 0 196 -47l76 78l209 -211l-90 -90q23 -74 23 -144v-241q0 -70 -23 -144l90 -90l-209 -211l-76 78q-89 -47 -196 -47q-108 0 -197 47l-76 -78z" />
    <glyph glyph-name="yen" unicode="&#xa5;" horiz-adv-x="864" 
d="M12 49v328h226v49h-226v328h41l-41 680h377l33 -660h20l33 660h377l-41 -680h41v-328h-225v-49h225v-328h-225v-49h-389v49h-226z" />
    <glyph glyph-name="section" unicode="&#xa7;" horiz-adv-x="868" 
d="M434 -158q-178 0 -293.5 102t-115.5 281v51h385v-63h49v86l-260 76q-174 53 -174 209v481q0 178 118 280.5t291 102.5q178 0 294 -102t116 -281v-51h-385v63h-49v-86l260 -76q174 -53 174 -208v-482q0 -119 -57 -207.5t-149 -132t-204 -43.5zM410 590l49 -15v134l-49 14
v-133z" />
    <glyph glyph-name="dieresis" unicode="&#xa8;" horiz-adv-x="667" 
d="M358 1151v307h285v-307h-285zM25 1151v307h284v-307h-284z" />
    <glyph glyph-name="copyright" unicode="&#xa9;" horiz-adv-x="1200" 
d="M596 -14q-115 0 -221 45.5t-182.5 122t-122 181t-45.5 218.5v328q0 114 45.5 218.5t122 181t182.5 122t221 45.5q157 0 290.5 -77t211.5 -207.5t78 -282.5v-328q0 -152 -78 -282.5t-211.5 -207.5t-290.5 -77zM178 553q0 -169 123.5 -291.5t294.5 -122.5q176 0 301 122
t125 292v328q0 169 -125 291t-301 122q-112 0 -208.5 -56t-153 -151t-56.5 -206v-328zM227 553v328q0 150 108 257t265 107q156 0 264.5 -107t108.5 -257v-140h-348v146h-50v-340h50v145h348v-139q0 -150 -108.5 -257.5t-264.5 -107.5q-157 0 -265 107t-108 258z" />
    <glyph glyph-name="ordfeminine" unicode="&#xaa;" horiz-adv-x="643" 
d="M631 547h-269l-6 117h-69l-6 -117h-269l45 887h529zM301 946h41l-10 209h-21z" />
    <glyph glyph-name="guillemotleft" unicode="&#xab;" horiz-adv-x="856" 
d="M522 391l-137 324l137 329h309l-135 -329l135 -324h-309zM25 715l137 329h309l-135 -329l135 -324h-309z" />
    <glyph glyph-name="registered" unicode="&#xae;" horiz-adv-x="866" 
d="M434 520q-172 0 -290.5 116.5t-118.5 291.5v112q0 175 118.5 291.5t290.5 116.5q171 0 289.5 -116.5t118.5 -291.5v-112q0 -175 -118.5 -291.5t-289.5 -116.5zM117 928q0 -140 92 -228t225 -88t224.5 88t91.5 228v112q0 140 -91.5 228t-224.5 88t-225 -88t-92 -228v-112z
M256 707v550h225q58 0 100 -42t42 -99v-151q0 -31 -13 -54q13 -23 13 -53v-151h-160v124h-49v-124h-158zM414 993h49v103h-49v-103z" />
    <glyph glyph-name="macron" unicode="&#xaf;" horiz-adv-x="598" 
d="M25 1151v270h548v-270h-548z" />
    <glyph glyph-name="degree" unicode="&#xb0;" 
d="M438 621q-172 0 -292.5 116t-120.5 297t120.5 297.5t292.5 116.5t293 -116.5t121 -297.5q0 -120 -56.5 -215.5t-151 -146.5t-206.5 -51zM414 979h49v111h-49v-111z" />
    <glyph glyph-name="plusminus" unicode="&#xb1;" 
d="M289 346v264h-264v297h264v264h297v-264h266v-297h-266v-264h-297zM25 0v297h827v-297h-827z" />
    <glyph glyph-name="uni00B2" unicode="&#xb2;" horiz-adv-x="712" 
d="M35 881q0 93 55 146.5t141 53.5h150v95h-49v-46h-307v46q0 46 17.5 91.5t53.5 87t102 67.5t152 26q84 0 150.5 -25.5t106.5 -68t60.5 -93.5t20.5 -106v-88q0 -58 -25.5 -110t-82.5 -89t-136 -37h-102v-100h41v51h305v-286h-653v385z" />
    <glyph glyph-name="uni00B3" unicode="&#xb3;" horiz-adv-x="712" 
d="M190 1081h191v95h-49v-46h-307v46q0 46 17.5 91.5t53.5 87t102 67.5t152 26q84 0 150.5 -25.5t106.5 -68t60.5 -93.5t20.5 -106v-88q0 -53 -24 -102q24 -49 24 -103v-88q0 -55 -20.5 -106t-60.5 -93.5t-106.5 -68t-150.5 -25.5q-86 0 -152 26t-102 68t-53.5 87.5
t-17.5 91.5v45h307v-45h49v94h-191v233z" />
    <glyph glyph-name="acute" unicode="&#xb4;" horiz-adv-x="401" 
d="M25 1151l30 307h322l-70 -307h-282z" />
    <glyph glyph-name="paragraph" unicode="&#xb6;" 
d="M389 596q-152 0 -258 109t-106 278v66q0 167 106 276t258 109h25v-838h-25zM463 0v1434h389v-1434h-389z" />
    <glyph glyph-name="periodcentered" unicode="&#xb7;" horiz-adv-x="438" 
d="M25 600v410h389v-410h-389z" />
    <glyph glyph-name="cedilla" unicode="&#xb8;" horiz-adv-x="434" 
d="M25 -348v147h186v58h-186v163h256v-40q56 -9 92.5 -52.5t36.5 -101.5q0 -78 -45.5 -126t-122.5 -48h-217z" />
    <glyph glyph-name="uni00B9" unicode="&#xb9;" horiz-adv-x="438" 
d="M106 496v639h-81v299h389v-938h-308z" />
    <glyph glyph-name="ordmasculine" unicode="&#xba;" horiz-adv-x="669" 
d="M354 1159h-41v-330h41v330zM25 844v301q0 131 90 220t219 89q130 0 220.5 -89t90.5 -220v-301q0 -131 -90.5 -220t-220.5 -89q-129 0 -219 89t-90 220z" />
    <glyph glyph-name="guillemotright" unicode="&#xbb;" horiz-adv-x="856" 
d="M694 391h-309l135 324l-135 329h309l137 -329zM25 391l135 324l-135 329h309l137 -329l-137 -324h-309z" />
    <glyph glyph-name="onequarter" unicode="&#xbc;" horiz-adv-x="1644" 
d="M336 0l393 1434h354l-393 -1434h-354zM25 1135v299h389v-938h-308v639h-81zM911 49v258l76 537h572v-844h-308v49h-340zM1196 307h55v279h-20z" />
    <glyph glyph-name="onehalf" unicode="&#xbd;" horiz-adv-x="1685" 
d="M336 0l393 1434h354l-393 -1434h-354zM25 1135v299h389v-938h-308v639h-81zM940 635v45q0 46 17.5 91.5t54 87t102.5 67.5t152 26q84 0 150.5 -25.5t106.5 -68t60.5 -93.5t20.5 -106v-88q0 -91 -64 -163t-180 -72h-103v-100h41v51h306v-287h-654v385q0 93 55.5 147
t141.5 54h149v94h-49v-45h-307z" />
    <glyph glyph-name="threequarters" unicode="&#xbe;" horiz-adv-x="1796" 
d="M549 0l393 1434h354l-393 -1434h-354zM25 754v45h307v-45h49v94h-191v233h191v95h-49v-46h-307v46q0 46 17.5 91.5t53.5 87t102 67.5t152 26q84 0 150.5 -25.5t106.5 -68t60.5 -93.5t20.5 -106v-88q0 -53 -24 -102q24 -49 24 -103v-88q0 -55 -20.5 -106t-60.5 -93.5
t-106.5 -68t-150.5 -25.5q-86 0 -152 26t-102 68t-53.5 87.5t-17.5 91.5zM1124 49v258l76 537h572v-844h-308v49h-340zM1409 307h55v279h-20z" />
    <glyph glyph-name="questiondown" unicode="&#xbf;" horiz-adv-x="868" 
d="M459 512h385v-127q0 -180 -118 -289.5t-292 -109.5t-291.5 109.5t-117.5 289.5v219q0 61 16.5 103t38.5 64.5t63 49.5l113 76v78h385v-154q0 -68 -20.5 -112t-69.5 -76l-141 -90v-158h49v127zM252 1024v410h389v-410h-389z" />
    <glyph glyph-name="Agrave" unicode="&#xc0;" horiz-adv-x="905" 
d="M12 0l76 1434h729l76 -1434h-377l-14 299h-99l-14 -299h-377zM266 1790h322l30 -307h-282zM422 657h61l-20 408h-21z" />
    <glyph glyph-name="Aacute" unicode="&#xc1;" horiz-adv-x="905" 
d="M12 0l76 1434h729l76 -1434h-377l-14 299h-99l-14 -299h-377zM299 1483l31 307h321l-69 -307h-283zM422 657h61l-20 408h-21z" />
    <glyph glyph-name="Acircumflex" unicode="&#xc2;" horiz-adv-x="905" 
d="M12 0l76 1434h729l76 -1434h-377l-14 299h-99l-14 -299h-377zM143 1483l103 307h413l103 -307h-258l-41 127h-21l-41 -127h-258zM422 657h61l-20 408h-21z" />
    <glyph glyph-name="Atilde" unicode="&#xc3;" horiz-adv-x="905" 
d="M12 0l76 1434h729l76 -1434h-377l-14 299h-99l-14 -299h-377zM154 1491v137q0 80 54.5 135.5t135.5 55.5q67 0 123 -45l53 -43h21v81h213v-139q0 -78 -55.5 -133t-133.5 -55q-71 0 -125 45l-53 45h-20v-84h-213zM422 657h61l-20 408h-21z" />
    <glyph glyph-name="Adieresis" unicode="&#xc4;" horiz-adv-x="905" 
d="M12 0l76 1434h729l76 -1434h-377l-14 299h-99l-14 -299h-377zM143 1483v307h285v-307h-285zM422 657h61l-20 408h-21zM477 1483v307h285v-307h-285z" />
    <glyph glyph-name="Aring" unicode="&#xc5;" horiz-adv-x="905" 
d="M12 0l76 1434h729l76 -1434h-377l-14 299h-99l-14 -299h-377zM233 1694q0 90 61.5 150.5t158.5 60.5q90 0 150.5 -60.5t60.5 -150.5q0 -96 -60 -157.5t-151 -61.5q-98 0 -159 61t-61 158zM420 1638h57v103h-57v-103zM422 657h61l-20 408h-21z" />
    <glyph glyph-name="AE" unicode="&#xc6;" horiz-adv-x="1040" 
d="M12 0l76 1434h928v-379h-178l8 -172h170v-338h-152l8 -166h144v-379h-500l-14 299h-99l-14 -299h-377zM422 657h61l-20 408h-21z" />
    <glyph glyph-name="Ccedilla" unicode="&#xc7;" 
d="M463 741v308h-49v-664h49v307h389v-293q0 -147 -82 -254t-213 -143v-22q56 -9 92.5 -52.5t36.5 -101.5q0 -78 -45.5 -126t-122.5 -48h-217v147h186v58h-186v151q-123 41 -199.5 145.5t-76.5 245.5v635q0 181 120.5 297.5t292.5 116.5t293 -116.5t121 -297.5v-293h-389z
" />
    <glyph glyph-name="Egrave" unicode="&#xc8;" horiz-adv-x="589" 
d="M25 0v1434h540v-369h-151v-172h151v-358h-151v-166h151v-369h-540zM111 1790h321l31 -307h-283z" />
    <glyph glyph-name="Eacute" unicode="&#xc9;" horiz-adv-x="589" 
d="M25 0v1434h540v-369h-151v-172h151v-358h-151v-166h151v-369h-540zM143 1483l31 307h322l-70 -307h-283z" />
    <glyph glyph-name="Ecircumflex" unicode="&#xca;" horiz-adv-x="589" 
d="M25 0v1434h540v-369h-151v-172h151v-358h-151v-166h151v-369h-540zM-12 1483l102 307h414l102 -307h-258l-41 127h-20l-41 -127h-258z" />
    <glyph glyph-name="Edieresis" unicode="&#xcb;" horiz-adv-x="589" 
d="M25 0v1434h540v-369h-151v-172h151v-358h-151v-166h151v-369h-540zM-12 1483v307h284v-307h-284zM322 1483v307h284v-307h-284z" />
    <glyph glyph-name="Igrave" unicode="&#xcc;" horiz-adv-x="438" 
d="M25 0v1434h389v-1434h-389zM35 1790h321l31 -307h-283z" />
    <glyph glyph-name="Iacute" unicode="&#xcd;" horiz-adv-x="438" 
d="M25 0v1434h389v-1434h-389zM68 1483l30 307h322l-70 -307h-282z" />
    <glyph glyph-name="Icircumflex" unicode="&#xce;" horiz-adv-x="438" 
d="M25 0v1434h389v-1434h-389zM-88 1483l102 307h414l102 -307h-258l-41 127h-20l-41 -127h-258z" />
    <glyph glyph-name="Idieresis" unicode="&#xcf;" horiz-adv-x="438" 
d="M25 0v1434h389v-1434h-389zM-88 1483v307h285v-307h-285zM246 1483v307h284v-307h-284z" />
    <glyph glyph-name="Eth" unicode="&#xd0;" horiz-adv-x="894" 
d="M12 573v314h31v547h414q172 0 292.5 -116t120.5 -296v-608q0 -181 -120.5 -297.5t-292.5 -116.5h-414v573h-31zM432 379h49v696h-49v-188h25v-314h-25v-194z" />
    <glyph glyph-name="Ntilde" unicode="&#xd1;" horiz-adv-x="1196" 
d="M25 0v1434h684l63 -1084h21v1084h378v-1434h-682l-65 1075h-21v-1075h-378zM332 1491v137q0 80 54.5 135.5t135.5 55.5q67 0 123 -45l53 -43h21v81h213v-139q0 -78 -55.5 -133t-133.5 -55q-71 0 -125 45l-53 45h-20v-84h-213z" />
    <glyph glyph-name="Ograve" unicode="&#xd2;" 
d="M463 1049h-49v-664h49v664zM25 399v635q0 181 120.5 297.5t292.5 116.5t293 -116.5t121 -297.5v-635q0 -120 -56.5 -215.5t-151 -146.5t-206.5 -51q-172 0 -292.5 116t-120.5 297zM252 1790h321l31 -307h-282z" />
    <glyph glyph-name="Oacute" unicode="&#xd3;" 
d="M463 1049h-49v-664h49v664zM25 399v635q0 181 120.5 297.5t292.5 116.5t293 -116.5t121 -297.5v-635q0 -120 -56.5 -215.5t-151 -146.5t-206.5 -51q-172 0 -292.5 116t-120.5 297zM285 1483l30 307h322l-70 -307h-282z" />
    <glyph glyph-name="Ocircumflex" unicode="&#xd4;" 
d="M463 1049h-49v-664h49v664zM25 399v635q0 181 120.5 297.5t292.5 116.5t293 -116.5t121 -297.5v-635q0 -120 -56.5 -215.5t-151 -146.5t-206.5 -51q-172 0 -292.5 116t-120.5 297zM129 1483l102 307h414l103 -307h-259l-40 127h-21l-41 -127h-258z" />
    <glyph glyph-name="Otilde" unicode="&#xd5;" 
d="M463 1049h-49v-664h49v664zM25 399v635q0 181 120.5 297.5t292.5 116.5t293 -116.5t121 -297.5v-635q0 -120 -56.5 -215.5t-151 -146.5t-206.5 -51q-172 0 -292.5 116t-120.5 297zM139 1491v137q0 80 55 135.5t136 55.5q67 0 123 -45l53 -43h20v81h213v-139
q0 -78 -55 -133t-133 -55q-71 0 -125 45l-53 45h-21v-84h-213z" />
    <glyph glyph-name="Odieresis" unicode="&#xd6;" 
d="M463 1049h-49v-664h49v664zM25 399v635q0 181 120.5 297.5t292.5 116.5t293 -116.5t121 -297.5v-635q0 -120 -56.5 -215.5t-151 -146.5t-206.5 -51q-172 0 -292.5 116t-120.5 297zM129 1483v307h285v-307h-285zM463 1483v307h285v-307h-285z" />
    <glyph glyph-name="multiply" unicode="&#xd7;" 
d="M221 295l-209 211l217 217l-217 215l209 211l217 -217l217 217l209 -211l-215 -215l215 -217l-209 -211l-217 217z" />
    <glyph glyph-name="Oslash" unicode="&#xd8;" 
d="M463 1049h-49v-664h49v664zM25 399v635q0 181 120.5 297.5t292.5 116.5q50 0 86 -8l17 76h311l-53 -271q53 -95 53 -211v-635q0 -120 -56.5 -215.5t-151 -146.5t-206.5 -51q-23 0 -63 4l-15 -72h-311l47 242q-71 104 -71 239z" />
    <glyph glyph-name="Ugrave" unicode="&#xd9;" 
d="M463 1434h389v-1035q0 -120 -56.5 -215.5t-151 -146.5t-206.5 -51q-172 0 -292.5 116t-120.5 297v1035h389v-1049h49v1049zM252 1790h321l31 -307h-282z" />
    <glyph glyph-name="Uacute" unicode="&#xda;" 
d="M463 1434h389v-1035q0 -120 -56.5 -215.5t-151 -146.5t-206.5 -51q-172 0 -292.5 116t-120.5 297v1035h389v-1049h49v1049zM285 1483l30 307h322l-70 -307h-282z" />
    <glyph glyph-name="Ucircumflex" unicode="&#xdb;" 
d="M463 1434h389v-1035q0 -120 -56.5 -215.5t-151 -146.5t-206.5 -51q-172 0 -292.5 116t-120.5 297v1035h389v-1049h49v1049zM129 1483l102 307h414l103 -307h-259l-40 127h-21l-41 -127h-258z" />
    <glyph glyph-name="Udieresis" unicode="&#xdc;" 
d="M463 1434h389v-1035q0 -120 -56.5 -215.5t-151 -146.5t-206.5 -51q-172 0 -292.5 116t-120.5 297v1035h389v-1049h49v1049zM129 1483v307h285v-307h-285zM463 1483v307h285v-307h-285z" />
    <glyph glyph-name="Yacute" unicode="&#xdd;" horiz-adv-x="864" 
d="M238 0v412h-166l-60 1022h377l33 -674h20l33 674h377l-59 -1022h-166v-412h-389zM279 1483l30 307h322l-70 -307h-282z" />
    <glyph glyph-name="Thorn" unicode="&#xde;" 
d="M25 0v1434h389v-154h24q172 0 293 -116.5t121 -297.5v-215q0 -179 -120.5 -296t-291.5 -117h-26v-238h-389zM414 596h49v326h-49v-326z" />
    <glyph glyph-name="germandbls" unicode="&#xdf;" horiz-adv-x="868" 
d="M25 1065q0 179 115.5 281t293.5 102q112 0 204 -43.5t149 -132t57 -207.5v-197q0 -97 -51 -151q51 -54 51 -152v-182q0 -184 -106.5 -283.5t-303.5 -99.5v371h25v159h-25v373h25v174h-49v-1077h-385v1065z" />
    <glyph glyph-name="agrave" unicode="&#xe0;" horiz-adv-x="905" 
d="M12 0l76 1434h729l76 -1434h-377l-14 299h-99l-14 -299h-377zM266 1790h322l30 -307h-282zM422 657h61l-20 408h-21z" />
    <glyph glyph-name="aacute" unicode="&#xe1;" horiz-adv-x="905" 
d="M12 0l76 1434h729l76 -1434h-377l-14 299h-99l-14 -299h-377zM299 1483l31 307h321l-69 -307h-283zM422 657h61l-20 408h-21z" />
    <glyph glyph-name="acircumflex" unicode="&#xe2;" horiz-adv-x="905" 
d="M12 0l76 1434h729l76 -1434h-377l-14 299h-99l-14 -299h-377zM143 1483l103 307h413l103 -307h-258l-41 127h-21l-41 -127h-258zM422 657h61l-20 408h-21z" />
    <glyph glyph-name="atilde" unicode="&#xe3;" horiz-adv-x="905" 
d="M12 0l76 1434h729l76 -1434h-377l-14 299h-99l-14 -299h-377zM154 1491v137q0 80 54.5 135.5t135.5 55.5q67 0 123 -45l53 -43h21v81h213v-139q0 -78 -55.5 -133t-133.5 -55q-71 0 -125 45l-53 45h-20v-84h-213zM422 657h61l-20 408h-21z" />
    <glyph glyph-name="adieresis" unicode="&#xe4;" horiz-adv-x="905" 
d="M12 0l76 1434h729l76 -1434h-377l-14 299h-99l-14 -299h-377zM143 1483v307h285v-307h-285zM422 657h61l-20 408h-21zM477 1483v307h285v-307h-285z" />
    <glyph glyph-name="aring" unicode="&#xe5;" horiz-adv-x="905" 
d="M12 0l76 1434h729l76 -1434h-377l-14 299h-99l-14 -299h-377zM233 1694q0 90 61.5 150.5t158.5 60.5q90 0 150.5 -60.5t60.5 -150.5q0 -96 -60 -157.5t-151 -61.5q-98 0 -159 61t-61 158zM420 1638h57v103h-57v-103zM422 657h61l-20 408h-21z" />
    <glyph glyph-name="ae" unicode="&#xe6;" horiz-adv-x="1040" 
d="M12 0l76 1434h928v-379h-178l8 -172h170v-338h-152l8 -166h144v-379h-500l-14 299h-99l-14 -299h-377zM422 657h61l-20 408h-21z" />
    <glyph glyph-name="ccedilla" unicode="&#xe7;" 
d="M463 741v308h-49v-664h49v307h389v-293q0 -147 -82 -254t-213 -143v-22q56 -9 92.5 -52.5t36.5 -101.5q0 -78 -45.5 -126t-122.5 -48h-217v147h186v58h-186v151q-123 41 -199.5 145.5t-76.5 245.5v635q0 181 120.5 297.5t292.5 116.5t293 -116.5t121 -297.5v-293h-389z
" />
    <glyph glyph-name="egrave" unicode="&#xe8;" horiz-adv-x="589" 
d="M25 0v1434h540v-369h-151v-172h151v-358h-151v-166h151v-369h-540zM111 1790h321l31 -307h-283z" />
    <glyph glyph-name="eacute" unicode="&#xe9;" horiz-adv-x="589" 
d="M25 0v1434h540v-369h-151v-172h151v-358h-151v-166h151v-369h-540zM143 1483l31 307h322l-70 -307h-283z" />
    <glyph glyph-name="ecircumflex" unicode="&#xea;" horiz-adv-x="589" 
d="M25 0v1434h540v-369h-151v-172h151v-358h-151v-166h151v-369h-540zM-12 1483l102 307h414l102 -307h-258l-41 127h-20l-41 -127h-258z" />
    <glyph glyph-name="edieresis" unicode="&#xeb;" horiz-adv-x="589" 
d="M25 0v1434h540v-369h-151v-172h151v-358h-151v-166h151v-369h-540zM-12 1483v307h284v-307h-284zM322 1483v307h284v-307h-284z" />
    <glyph glyph-name="igrave" unicode="&#xec;" horiz-adv-x="438" 
d="M25 0v1434h389v-1434h-389zM35 1790h321l31 -307h-283z" />
    <glyph glyph-name="iacute" unicode="&#xed;" horiz-adv-x="438" 
d="M25 0v1434h389v-1434h-389zM68 1483l30 307h322l-70 -307h-282z" />
    <glyph glyph-name="icircumflex" unicode="&#xee;" horiz-adv-x="438" 
d="M25 0v1434h389v-1434h-389zM-88 1483l102 307h414l102 -307h-258l-41 127h-20l-41 -127h-258z" />
    <glyph glyph-name="idieresis" unicode="&#xef;" horiz-adv-x="438" 
d="M25 0v1434h389v-1434h-389zM-88 1483v307h285v-307h-285zM246 1483v307h284v-307h-284z" />
    <glyph glyph-name="eth" unicode="&#xf0;" horiz-adv-x="894" 
d="M12 573v314h31v547h414q172 0 292.5 -116t120.5 -296v-608q0 -181 -120.5 -297.5t-292.5 -116.5h-414v573h-31zM432 379h49v696h-49v-188h25v-314h-25v-194z" />
    <glyph glyph-name="ntilde" unicode="&#xf1;" horiz-adv-x="1196" 
d="M25 0v1434h684l63 -1084h21v1084h378v-1434h-682l-65 1075h-21v-1075h-378zM332 1491v137q0 80 54.5 135.5t135.5 55.5q67 0 123 -45l53 -43h21v81h213v-139q0 -78 -55.5 -133t-133.5 -55q-71 0 -125 45l-53 45h-20v-84h-213z" />
    <glyph glyph-name="ograve" unicode="&#xf2;" 
d="M463 1049h-49v-664h49v664zM25 399v635q0 181 120.5 297.5t292.5 116.5t293 -116.5t121 -297.5v-635q0 -120 -56.5 -215.5t-151 -146.5t-206.5 -51q-172 0 -292.5 116t-120.5 297zM252 1790h321l31 -307h-282z" />
    <glyph glyph-name="oacute" unicode="&#xf3;" 
d="M463 1049h-49v-664h49v664zM25 399v635q0 181 120.5 297.5t292.5 116.5t293 -116.5t121 -297.5v-635q0 -120 -56.5 -215.5t-151 -146.5t-206.5 -51q-172 0 -292.5 116t-120.5 297zM285 1483l30 307h322l-70 -307h-282z" />
    <glyph glyph-name="ocircumflex" unicode="&#xf4;" 
d="M463 1049h-49v-664h49v664zM25 399v635q0 181 120.5 297.5t292.5 116.5t293 -116.5t121 -297.5v-635q0 -120 -56.5 -215.5t-151 -146.5t-206.5 -51q-172 0 -292.5 116t-120.5 297zM129 1483l102 307h414l103 -307h-259l-40 127h-21l-41 -127h-258z" />
    <glyph glyph-name="otilde" unicode="&#xf5;" 
d="M463 1049h-49v-664h49v664zM25 399v635q0 181 120.5 297.5t292.5 116.5t293 -116.5t121 -297.5v-635q0 -120 -56.5 -215.5t-151 -146.5t-206.5 -51q-172 0 -292.5 116t-120.5 297zM139 1491v137q0 80 55 135.5t136 55.5q67 0 123 -45l53 -43h20v81h213v-139
q0 -78 -55 -133t-133 -55q-71 0 -125 45l-53 45h-21v-84h-213z" />
    <glyph glyph-name="odieresis" unicode="&#xf6;" 
d="M463 1049h-49v-664h49v664zM25 399v635q0 181 120.5 297.5t292.5 116.5t293 -116.5t121 -297.5v-635q0 -120 -56.5 -215.5t-151 -146.5t-206.5 -51q-172 0 -292.5 116t-120.5 297zM129 1483v307h285v-307h-285zM463 1483v307h285v-307h-285z" />
    <glyph glyph-name="divide" unicode="&#xf7;" 
d="M25 573v297h827v-297h-827zM272 356q0 70 48.5 119t117.5 49q70 0 119 -49t49 -119q0 -69 -49 -117.5t-119 -48.5q-69 0 -117.5 48.5t-48.5 117.5zM272 1085q0 70 48.5 119t117.5 49q70 0 119 -48.5t49 -119.5q0 -69 -49 -117t-119 -48q-69 0 -117.5 48t-48.5 117z" />
    <glyph glyph-name="oslash" unicode="&#xf8;" 
d="M463 1049h-49v-664h49v664zM25 399v635q0 181 120.5 297.5t292.5 116.5q50 0 86 -8l17 76h311l-53 -271q53 -95 53 -211v-635q0 -120 -56.5 -215.5t-151 -146.5t-206.5 -51q-23 0 -63 4l-15 -72h-311l47 242q-71 104 -71 239z" />
    <glyph glyph-name="ugrave" unicode="&#xf9;" 
d="M463 1434h389v-1035q0 -120 -56.5 -215.5t-151 -146.5t-206.5 -51q-172 0 -292.5 116t-120.5 297v1035h389v-1049h49v1049zM252 1790h321l31 -307h-282z" />
    <glyph glyph-name="uacute" unicode="&#xfa;" 
d="M463 1434h389v-1035q0 -120 -56.5 -215.5t-151 -146.5t-206.5 -51q-172 0 -292.5 116t-120.5 297v1035h389v-1049h49v1049zM285 1483l30 307h322l-70 -307h-282z" />
    <glyph glyph-name="ucircumflex" unicode="&#xfb;" 
d="M463 1434h389v-1035q0 -120 -56.5 -215.5t-151 -146.5t-206.5 -51q-172 0 -292.5 116t-120.5 297v1035h389v-1049h49v1049zM129 1483l102 307h414l103 -307h-259l-40 127h-21l-41 -127h-258z" />
    <glyph glyph-name="udieresis" unicode="&#xfc;" 
d="M463 1434h389v-1035q0 -120 -56.5 -215.5t-151 -146.5t-206.5 -51q-172 0 -292.5 116t-120.5 297v1035h389v-1049h49v1049zM129 1483v307h285v-307h-285zM463 1483v307h285v-307h-285z" />
    <glyph glyph-name="yacute" unicode="&#xfd;" horiz-adv-x="864" 
d="M238 0v412h-166l-60 1022h377l33 -674h20l33 674h377l-59 -1022h-166v-412h-389zM279 1483l30 307h322l-70 -307h-282z" />
    <glyph glyph-name="thorn" unicode="&#xfe;" 
d="M25 0v1434h389v-154h24q172 0 293 -116.5t121 -297.5v-215q0 -179 -120.5 -296t-291.5 -117h-26v-238h-389zM414 596h49v326h-49v-326z" />
    <glyph glyph-name="ydieresis" unicode="&#xff;" horiz-adv-x="864" 
d="M238 0v412h-166l-60 1022h377l33 -674h20l33 674h377l-59 -1022h-166v-412h-389zM123 1483v307h285v-307h-285zM457 1483v307h284v-307h-284z" />
    <glyph glyph-name="Amacron" unicode="&#x100;" horiz-adv-x="905" 
d="M12 0l76 1434h729l76 -1434h-377l-14 299h-99l-14 -299h-377zM178 1483v270h549v-270h-549zM422 657h61l-20 408h-21z" />
    <glyph glyph-name="amacron" unicode="&#x101;" horiz-adv-x="905" 
d="M12 0l76 1434h729l76 -1434h-377l-14 299h-99l-14 -299h-377zM178 1483v270h549v-270h-549zM422 657h61l-20 408h-21z" />
    <glyph glyph-name="Abreve" unicode="&#x102;" horiz-adv-x="905" 
d="M12 0l76 1434h729l76 -1434h-377l-14 299h-99l-14 -299h-377zM188 1700v90h240v-119h49v119h240v-90q0 -62 -25 -108.5t-65.5 -71t-84.5 -36t-91 -11.5q-45 0 -88.5 11.5t-84 36t-65.5 71t-25 108.5zM422 657h61l-20 408h-21z" />
    <glyph glyph-name="abreve" unicode="&#x103;" horiz-adv-x="905" 
d="M12 0l76 1434h729l76 -1434h-377l-14 299h-99l-14 -299h-377zM188 1700v90h240v-119h49v119h240v-90q0 -62 -25 -108.5t-65.5 -71t-84.5 -36t-91 -11.5q-45 0 -88.5 11.5t-84 36t-65.5 71t-25 108.5zM422 657h61l-20 408h-21z" />
    <glyph glyph-name="Aogonek" unicode="&#x104;" horiz-adv-x="905" 
d="M12 0l76 1434h729l76 -1434l-25 -41q-14 -23 -14 -37q0 -15 10.5 -25t24.5 -10h4v-235h-143q-118 0 -178 54t-60 144q0 59 47 136l8 14h-51l-14 299h-99l-14 -299h-377zM422 657h61l-20 408h-21z" />
    <glyph glyph-name="aogonek" unicode="&#x105;" horiz-adv-x="905" 
d="M12 0l76 1434h729l76 -1434l-25 -41q-14 -23 -14 -37q0 -15 10.5 -25t24.5 -10h4v-235h-143q-118 0 -178 54t-60 144q0 59 47 136l8 14h-51l-14 299h-99l-14 -299h-377zM422 657h61l-20 408h-21z" />
    <glyph glyph-name="Cacute" unicode="&#x106;" 
d="M463 741v308h-49v-664h49v307h389v-293q0 -120 -56.5 -215.5t-151 -146.5t-206.5 -51q-172 0 -292.5 116t-120.5 297v635q0 181 120.5 297.5t292.5 116.5t293 -116.5t121 -297.5v-293h-389zM285 1483l30 307h322l-70 -307h-282z" />
    <glyph glyph-name="cacute" unicode="&#x107;" 
d="M463 741v308h-49v-664h49v307h389v-293q0 -120 -56.5 -215.5t-151 -146.5t-206.5 -51q-172 0 -292.5 116t-120.5 297v635q0 181 120.5 297.5t292.5 116.5t293 -116.5t121 -297.5v-293h-389zM285 1483l30 307h322l-70 -307h-282z" />
    <glyph glyph-name="Ccircumflex" unicode="&#x108;" 
d="M463 741v308h-49v-664h49v307h389v-293q0 -120 -56.5 -215.5t-151 -146.5t-206.5 -51q-172 0 -292.5 116t-120.5 297v635q0 181 120.5 297.5t292.5 116.5t293 -116.5t121 -297.5v-293h-389zM129 1483l102 307h414l103 -307h-259l-40 127h-21l-41 -127h-258z" />
    <glyph glyph-name="ccircumflex" unicode="&#x109;" 
d="M463 741v308h-49v-664h49v307h389v-293q0 -120 -56.5 -215.5t-151 -146.5t-206.5 -51q-172 0 -292.5 116t-120.5 297v635q0 181 120.5 297.5t292.5 116.5t293 -116.5t121 -297.5v-293h-389zM129 1483l102 307h414l103 -307h-259l-40 127h-21l-41 -127h-258z" />
    <glyph glyph-name="Cdotaccent" unicode="&#x10a;" 
d="M463 741v308h-49v-664h49v307h389v-293q0 -120 -56.5 -215.5t-151 -146.5t-206.5 -51q-172 0 -292.5 116t-120.5 297v635q0 181 120.5 297.5t292.5 116.5t293 -116.5t121 -297.5v-293h-389zM293 1483v307h287v-307h-287z" />
    <glyph glyph-name="cdotaccent" unicode="&#x10b;" 
d="M463 741v308h-49v-664h49v307h389v-293q0 -120 -56.5 -215.5t-151 -146.5t-206.5 -51q-172 0 -292.5 116t-120.5 297v635q0 181 120.5 297.5t292.5 116.5t293 -116.5t121 -297.5v-293h-389zM293 1483v307h287v-307h-287z" />
    <glyph glyph-name="Ccaron" unicode="&#x10c;" 
d="M463 741v308h-49v-664h49v307h389v-293q0 -120 -56.5 -215.5t-151 -146.5t-206.5 -51q-172 0 -292.5 116t-120.5 297v635q0 181 120.5 297.5t292.5 116.5t293 -116.5t121 -297.5v-293h-389zM131 1790h258l41 -127h21l41 127h258l-103 -307h-414z" />
    <glyph glyph-name="ccaron" unicode="&#x10d;" 
d="M463 741v308h-49v-664h49v307h389v-293q0 -120 -56.5 -215.5t-151 -146.5t-206.5 -51q-172 0 -292.5 116t-120.5 297v635q0 181 120.5 297.5t292.5 116.5t293 -116.5t121 -297.5v-293h-389zM131 1790h258l41 -127h21l41 127h258l-103 -307h-414z" />
    <glyph glyph-name="Dcaron" unicode="&#x10e;" 
d="M25 0v1434h413q172 0 293 -116t121 -296v-608q0 -181 -121 -297.5t-293 -116.5h-413zM123 1790h258l41 -127h20l41 127h258l-102 -307h-414zM414 379h49v696h-49v-696z" />
    <glyph glyph-name="dcaron" unicode="&#x10f;" 
d="M25 0v1434h413q172 0 293 -116t121 -296v-608q0 -181 -121 -297.5t-293 -116.5h-413zM123 1790h258l41 -127h20l41 127h258l-102 -307h-414zM414 379h49v696h-49v-696z" />
    <glyph glyph-name="Dcroat" unicode="&#x110;" horiz-adv-x="894" 
d="M12 573v314h31v547h414q172 0 292.5 -116t120.5 -296v-608q0 -181 -120.5 -297.5t-292.5 -116.5h-414v573h-31zM432 379h49v696h-49v-188h25v-314h-25v-194z" />
    <glyph glyph-name="dcroat" unicode="&#x111;" horiz-adv-x="907" 
d="M25 573v314h30v547h414q172 0 293 -116t121 -296v-608q0 -181 -121 -297.5t-293 -116.5h-414v573h-30zM444 379h50v696h-50v-188h25v-314h-25v-194z" />
    <glyph glyph-name="Emacron" unicode="&#x112;" horiz-adv-x="589" 
d="M25 0v1434h540v-369h-151v-172h151v-358h-151v-166h151v-369h-540zM23 1483v270h548v-270h-548z" />
    <glyph glyph-name="emacron" unicode="&#x113;" horiz-adv-x="589" 
d="M25 0v1434h540v-369h-151v-172h151v-358h-151v-166h151v-369h-540zM23 1483v270h548v-270h-548z" />
    <glyph glyph-name="Ebreve" unicode="&#x114;" horiz-adv-x="589" 
d="M25 0v1434h540v-369h-151v-172h151v-358h-151v-166h151v-369h-540zM33 1700v90h239v-119h50v119h239v-90q0 -62 -25 -108.5t-65.5 -71t-84.5 -36t-91 -11.5q-35 0 -70 6.5t-70 23.5t-61.5 42t-43.5 65t-17 90z" />
    <glyph glyph-name="ebreve" unicode="&#x115;" horiz-adv-x="589" 
d="M25 0v1434h540v-369h-151v-172h151v-358h-151v-166h151v-369h-540zM33 1700v90h239v-119h50v119h239v-90q0 -62 -25 -108.5t-65.5 -71t-84.5 -36t-91 -11.5q-35 0 -70 6.5t-70 23.5t-61.5 42t-43.5 65t-17 90z" />
    <glyph glyph-name="Edotaccent" unicode="&#x116;" horiz-adv-x="589" 
d="M25 0v1434h540v-369h-151v-172h151v-358h-151v-166h151v-369h-540zM152 1483v307h286v-307h-286z" />
    <glyph glyph-name="edotaccent" unicode="&#x117;" horiz-adv-x="589" 
d="M25 0v1434h540v-369h-151v-172h151v-358h-151v-166h151v-369h-540zM152 1483v307h286v-307h-286z" />
    <glyph glyph-name="Eogonek" unicode="&#x118;" horiz-adv-x="589" 
d="M25 0v1434h540v-369h-151v-172h151v-358h-151v-166h151v-369l-24 -41q-15 -25 -15 -37q0 -15 10.5 -25t24.5 -10h4v-235h-143q-118 0 -178 54t-60 144q0 59 47 136l9 14h-215z" />
    <glyph glyph-name="eogonek" unicode="&#x119;" horiz-adv-x="589" 
d="M25 0v1434h540v-369h-151v-172h151v-358h-151v-166h151v-369l-24 -41q-15 -25 -15 -37q0 -15 10.5 -25t24.5 -10h4v-235h-143q-118 0 -178 54t-60 144q0 59 47 136l9 14h-215z" />
    <glyph glyph-name="Ecaron" unicode="&#x11a;" horiz-adv-x="589" 
d="M25 0v1434h540v-369h-151v-172h151v-358h-151v-166h151v-369h-540zM-10 1790h258l41 -127h20l41 127h258l-102 -307h-414z" />
    <glyph glyph-name="ecaron" unicode="&#x11b;" horiz-adv-x="589" 
d="M25 0v1434h540v-369h-151v-172h151v-358h-151v-166h151v-369h-540zM-10 1790h258l41 -127h20l41 127h258l-102 -307h-414z" />
    <glyph glyph-name="Gcircumflex" unicode="&#x11c;" 
d="M25 1034q0 181 120.5 297.5t292.5 116.5t293 -116.5t121 -297.5v-188h-389v203h-49v-664h49v119h-25v297h414v-402q0 -120 -56.5 -215.5t-151 -146.5t-206.5 -51q-172 0 -292.5 116t-120.5 297v635zM127 1483l102 307h414l102 -307h-258l-41 127h-20l-41 -127h-258z" />
    <glyph glyph-name="gcircumflex" unicode="&#x11d;" 
d="M25 1034q0 181 120.5 297.5t292.5 116.5t293 -116.5t121 -297.5v-188h-389v203h-49v-664h49v119h-25v297h414v-402q0 -120 -56.5 -215.5t-151 -146.5t-206.5 -51q-172 0 -292.5 116t-120.5 297v635zM127 1483l102 307h414l102 -307h-258l-41 127h-20l-41 -127h-258z" />
    <glyph glyph-name="Gbreve" unicode="&#x11e;" 
d="M25 1034q0 181 120.5 297.5t292.5 116.5t293 -116.5t121 -297.5v-188h-389v203h-49v-664h49v119h-25v297h414v-402q0 -120 -56.5 -215.5t-151 -146.5t-206.5 -51q-172 0 -292.5 116t-120.5 297v635zM172 1700v90h240v-119h49v119h239v-90q0 -62 -25 -108.5t-65.5 -71
t-84.5 -36t-91 -11.5q-35 0 -70 6.5t-70 23.5t-61.5 42t-43.5 65t-17 90z" />
    <glyph glyph-name="gbreve" unicode="&#x11f;" 
d="M25 1034q0 181 120.5 297.5t292.5 116.5t293 -116.5t121 -297.5v-188h-389v203h-49v-664h49v119h-25v297h414v-402q0 -120 -56.5 -215.5t-151 -146.5t-206.5 -51q-172 0 -292.5 116t-120.5 297v635zM172 1700v90h240v-119h49v119h239v-90q0 -62 -25 -108.5t-65.5 -71
t-84.5 -36t-91 -11.5q-35 0 -70 6.5t-70 23.5t-61.5 42t-43.5 65t-17 90z" />
    <glyph glyph-name="Gdotaccent" unicode="&#x120;" 
d="M25 1034q0 181 120.5 297.5t292.5 116.5t293 -116.5t121 -297.5v-188h-389v203h-49v-664h49v119h-25v297h414v-402q0 -120 -56.5 -215.5t-151 -146.5t-206.5 -51q-172 0 -292.5 116t-120.5 297v635zM291 1483v307h287v-307h-287z" />
    <glyph glyph-name="gdotaccent" unicode="&#x121;" 
d="M25 1034q0 181 120.5 297.5t292.5 116.5t293 -116.5t121 -297.5v-188h-389v203h-49v-664h49v119h-25v297h414v-402q0 -120 -56.5 -215.5t-151 -146.5t-206.5 -51q-172 0 -292.5 116t-120.5 297v635zM291 1483v307h287v-307h-287z" />
    <glyph glyph-name="uni0122" unicode="&#x122;" 
d="M25 1034q0 181 120.5 297.5t292.5 116.5t293 -116.5t121 -297.5v-188h-389v203h-49v-664h49v119h-25v297h414v-402q0 -120 -56.5 -215.5t-151 -146.5t-206.5 -51q-172 0 -292.5 116t-120.5 297v635zM262 -502l55 176h-55v273h361v-273l-56 -176h-305z" />
    <glyph glyph-name="uni0123" unicode="&#x123;" 
d="M25 1034q0 181 120.5 297.5t292.5 116.5t293 -116.5t121 -297.5v-188h-389v203h-49v-664h49v119h-25v297h414v-402q0 -120 -56.5 -215.5t-151 -146.5t-206.5 -51q-172 0 -292.5 116t-120.5 297v635zM262 -502l55 176h-55v273h361v-273l-56 -176h-305z" />
    <glyph glyph-name="Hcircumflex" unicode="&#x124;" 
d="M463 0v535h-49v-535h-389v1434h389v-541h49v541h389v-1434h-389zM129 1483l102 307h414l103 -307h-259l-40 127h-21l-41 -127h-258z" />
    <glyph glyph-name="hcircumflex" unicode="&#x125;" 
d="M463 0v535h-49v-535h-389v1434h389v-541h49v541h389v-1434h-389zM129 1483l102 307h414l103 -307h-259l-40 127h-21l-41 -127h-258z" />
    <glyph glyph-name="Hbar" unicode="&#x126;" horiz-adv-x="892" 
d="M12 975v297h21v162h389v-162h49v162h389v-162h21v-297h-21v-975h-389v535h-49v-535h-389v975h-21zM422 893h49v82h-49v-82z" />
    <glyph glyph-name="hbar" unicode="&#x127;" horiz-adv-x="892" 
d="M12 975v297h21v162h389v-162h49v162h389v-162h21v-297h-21v-975h-389v535h-49v-535h-389v975h-21zM422 893h49v82h-49v-82z" />
    <glyph glyph-name="Itilde" unicode="&#x128;" horiz-adv-x="438" 
d="M25 0v1434h389v-1434h-389zM-78 1491v137q0 80 55 135.5t136 55.5q67 0 123 -45l53 -43h20v81h213v-139q0 -78 -55 -133t-133 -55q-71 0 -125 45l-53 45h-21v-84h-213z" />
    <glyph glyph-name="itilde" unicode="&#x129;" horiz-adv-x="438" 
d="M25 0v1434h389v-1434h-389zM-78 1491v137q0 80 55 135.5t136 55.5q67 0 123 -45l53 -43h20v81h213v-139q0 -78 -55 -133t-133 -55q-71 0 -125 45l-53 45h-21v-84h-213z" />
    <glyph glyph-name="Imacron" unicode="&#x12a;" horiz-adv-x="438" 
d="M25 0v1434h389v-1434h-389zM-53 1483v270h549v-270h-549z" />
    <glyph glyph-name="imacron" unicode="&#x12b;" horiz-adv-x="438" 
d="M25 0v1434h389v-1434h-389zM-53 1483v270h549v-270h-549z" />
    <glyph glyph-name="Ibreve" unicode="&#x12c;" horiz-adv-x="438" 
d="M25 0v1434h389v-1434h-389zM-43 1700v90h240v-119h49v119h239v-90q0 -62 -25 -108.5t-65.5 -71t-84.5 -36t-91 -11.5q-35 0 -70 6.5t-70 23.5t-61.5 42t-43.5 65t-17 90z" />
    <glyph glyph-name="ibreve" unicode="&#x12d;" horiz-adv-x="438" 
d="M25 0v1434h389v-1434h-389zM-43 1700v90h240v-119h49v119h239v-90q0 -62 -25 -108.5t-65.5 -71t-84.5 -36t-91 -11.5q-35 0 -70 6.5t-70 23.5t-61.5 42t-43.5 65t-17 90z" />
    <glyph glyph-name="Iogonek" unicode="&#x12e;" horiz-adv-x="438" 
d="M25 0v1434h389v-1434l-25 -41q-14 -23 -14 -37q0 -15 10.5 -25t24.5 -10h4v-235h-144q-118 0 -177.5 54t-59.5 144q0 59 47 136l8 14h-63z" />
    <glyph glyph-name="iogonek" unicode="&#x12f;" horiz-adv-x="438" 
d="M25 0v1434h389v-1434l-25 -41q-14 -23 -14 -37q0 -15 10.5 -25t24.5 -10h4v-235h-144q-118 0 -177.5 54t-59.5 144q0 59 47 136l8 14h-63z" />
    <glyph glyph-name="Idotaccent" unicode="&#x130;" horiz-adv-x="438" 
d="M25 0v1434h389v-1434h-389zM76 1483v307h286v-307h-286z" />
    <glyph glyph-name="IJ" unicode="&#x132;" horiz-adv-x="925" 
d="M25 0v1434h389v-1434h-389zM463 0v399h49v1035h389v-1020q0 -187 -110 -300.5t-304 -113.5h-24z" />
    <glyph glyph-name="ij" unicode="&#x133;" horiz-adv-x="925" 
d="M25 0v1434h389v-1434h-389zM463 0v399h49v1035h389v-1020q0 -187 -110 -300.5t-304 -113.5h-24z" />
    <glyph glyph-name="Jcircumflex" unicode="&#x134;" horiz-adv-x="487" 
d="M74 1434h389v-1020q0 -187 -110 -300.5t-304 -113.5h-24v399h49v1035zM-37 1483l103 307h413l103 -307h-258l-41 127h-21l-41 -127h-258z" />
    <glyph glyph-name="jcircumflex" unicode="&#x135;" horiz-adv-x="487" 
d="M74 1434h389v-1020q0 -187 -110 -300.5t-304 -113.5h-24v399h49v1035zM-37 1483l103 307h413l103 -307h-258l-41 127h-21l-41 -127h-258z" />
    <glyph glyph-name="uni0136" unicode="&#x136;" 
d="M414 0h-389v1434h389v-521h20l35 521h383l-37 -715l37 -719h-383l-35 524h-20v-524zM264 -502l55 176h-55v273h361v-273l-56 -176h-305z" />
    <glyph glyph-name="uni0137" unicode="&#x137;" 
d="M414 0h-389v1434h389v-521h20l35 521h383l-37 -715l37 -719h-383l-35 524h-20v-524zM264 -502l55 176h-55v273h361v-273l-56 -176h-305z" />
    <glyph glyph-name="Lacute" unicode="&#x139;" horiz-adv-x="577" 
d="M25 0v1434h389v-1035h151v-399h-540zM80 1483l31 307h321l-70 -307h-282z" />
    <glyph glyph-name="lacute" unicode="&#x13a;" horiz-adv-x="577" 
d="M25 0v1434h389v-1035h151v-399h-540zM80 1483l31 307h321l-70 -307h-282z" />
    <glyph glyph-name="uni013B" unicode="&#x13b;" horiz-adv-x="577" 
d="M25 0v1434h389v-1035h151v-399h-540zM117 -502l55 176h-55v273h360v-273l-55 -176h-305z" />
    <glyph glyph-name="uni013C" unicode="&#x13c;" horiz-adv-x="577" 
d="M25 0v1434h389v-1035h151v-399h-540zM117 -502l55 176h-55v273h360v-273l-55 -176h-305z" />
    <glyph glyph-name="Lcaron" unicode="&#x13d;" horiz-adv-x="761" 
d="M25 0v1434h389v-1035h151v-399h-540zM455 924l20 510h275l-33 -510h-262z" />
    <glyph glyph-name="lcaron" unicode="&#x13e;" horiz-adv-x="520" 
d="M25 0v1434h389v-1035h151v-399h-540zM455 924l20 510h275l-33 -510h-262z" />
    <glyph glyph-name="Ldot" unicode="&#x13f;" 
d="M25 0v1434h389v-1035h151v-399h-540zM463 618v410h389v-410h-389z" />
    <glyph glyph-name="ldot" unicode="&#x140;" 
d="M25 0v1434h389v-1035h151v-399h-540zM463 618v410h389v-410h-389z" />
    <glyph glyph-name="Lslash" unicode="&#x141;" horiz-adv-x="620" 
d="M12 438v367l56 29v600h389v-396l100 54v-367l-100 -53v-273h151v-399h-540v467z" />
    <glyph glyph-name="lslash" unicode="&#x142;" horiz-adv-x="620" 
d="M12 438v367l56 29v600h389v-396l100 54v-367l-100 -53v-273h151v-399h-540v467z" />
    <glyph glyph-name="Nacute" unicode="&#x143;" horiz-adv-x="1196" 
d="M25 0v1434h684l63 -1084h21v1084h378v-1434h-682l-65 1075h-21v-1075h-378zM477 1483l31 307h321l-69 -307h-283z" />
    <glyph glyph-name="nacute" unicode="&#x144;" horiz-adv-x="1196" 
d="M25 0v1434h684l63 -1084h21v1084h378v-1434h-682l-65 1075h-21v-1075h-378zM477 1483l31 307h321l-69 -307h-283z" />
    <glyph glyph-name="uni0145" unicode="&#x145;" horiz-adv-x="1196" 
d="M25 0v1434h684l63 -1084h21v1084h378v-1434h-682l-65 1075h-21v-1075h-378zM412 -502l55 176h-55v273h360v-273l-55 -176h-305z" />
    <glyph glyph-name="uni0146" unicode="&#x146;" horiz-adv-x="1196" 
d="M25 0v1434h684l63 -1084h21v1084h378v-1434h-682l-65 1075h-21v-1075h-378zM412 -502l55 176h-55v273h360v-273l-55 -176h-305z" />
    <glyph glyph-name="Ncaron" unicode="&#x147;" horiz-adv-x="1196" 
d="M25 0v1434h684l63 -1084h21v1084h378v-1434h-682l-65 1075h-21v-1075h-378zM324 1790h258l41 -127h20l41 127h258l-102 -307h-414z" />
    <glyph glyph-name="ncaron" unicode="&#x148;" horiz-adv-x="1196" 
d="M25 0v1434h684l63 -1084h21v1084h378v-1434h-682l-65 1075h-21v-1075h-378zM324 1790h258l41 -127h20l41 127h258l-102 -307h-414z" />
    <glyph glyph-name="Eng" unicode="&#x14a;" horiz-adv-x="1196" 
d="M733 -449v400h70v49h-314l-65 1075h-21v-1075h-378v1434h684l63 -1084h21v1084h378v-1469q0 -188 -109.5 -301t-303.5 -113h-25z" />
    <glyph glyph-name="eng" unicode="&#x14b;" horiz-adv-x="1196" 
d="M733 -449v400h70v49h-314l-65 1075h-21v-1075h-378v1434h684l63 -1084h21v1084h378v-1469q0 -188 -109.5 -301t-303.5 -113h-25z" />
    <glyph glyph-name="Omacron" unicode="&#x14c;" 
d="M463 1049h-49v-664h49v664zM25 399v635q0 181 120.5 297.5t292.5 116.5t293 -116.5t121 -297.5v-635q0 -120 -56.5 -215.5t-151 -146.5t-206.5 -51q-172 0 -292.5 116t-120.5 297zM164 1483v270h549v-270h-549z" />
    <glyph glyph-name="omacron" unicode="&#x14d;" 
d="M463 1049h-49v-664h49v664zM25 399v635q0 181 120.5 297.5t292.5 116.5t293 -116.5t121 -297.5v-635q0 -120 -56.5 -215.5t-151 -146.5t-206.5 -51q-172 0 -292.5 116t-120.5 297zM164 1483v270h549v-270h-549z" />
    <glyph glyph-name="Obreve" unicode="&#x14e;" 
d="M463 1049h-49v-664h49v664zM25 399v635q0 181 120.5 297.5t292.5 116.5t293 -116.5t121 -297.5v-635q0 -120 -56.5 -215.5t-151 -146.5t-206.5 -51q-172 0 -292.5 116t-120.5 297zM174 1700v90h240v-119h49v119h239v-90q0 -62 -25 -108.5t-65.5 -71t-84.5 -36t-91 -11.5
q-35 0 -70 6.5t-70 23.5t-61.5 42t-43.5 65t-17 90z" />
    <glyph glyph-name="obreve" unicode="&#x14f;" 
d="M463 1049h-49v-664h49v664zM25 399v635q0 181 120.5 297.5t292.5 116.5t293 -116.5t121 -297.5v-635q0 -120 -56.5 -215.5t-151 -146.5t-206.5 -51q-172 0 -292.5 116t-120.5 297zM174 1700v90h240v-119h49v119h239v-90q0 -62 -25 -108.5t-65.5 -71t-84.5 -36t-91 -11.5
q-35 0 -70 6.5t-70 23.5t-61.5 42t-43.5 65t-17 90z" />
    <glyph glyph-name="Ohungarumlaut" unicode="&#x150;" 
d="M463 1049h-49v-664h49v664zM25 399v635q0 181 120.5 297.5t292.5 116.5t293 -116.5t121 -297.5v-635q0 -120 -56.5 -215.5t-151 -146.5t-206.5 -51q-172 0 -292.5 116t-120.5 297zM121 1483l31 307h297l-41 -307h-287zM461 1483l43 307h305l-70 -307h-278z" />
    <glyph glyph-name="ohungarumlaut" unicode="&#x151;" 
d="M463 1049h-49v-664h49v664zM25 399v635q0 181 120.5 297.5t292.5 116.5t293 -116.5t121 -297.5v-635q0 -120 -56.5 -215.5t-151 -146.5t-206.5 -51q-172 0 -292.5 116t-120.5 297zM121 1483l31 307h297l-41 -307h-287zM461 1483l43 307h305l-70 -307h-278z" />
    <glyph glyph-name="OE" unicode="&#x152;" horiz-adv-x="1028" 
d="M463 1049h-49v-664h49v664zM25 399v635q0 181 120.5 297.5t292.5 116.5q61 0 113 -14h453v-369h-152v-172h152v-358h-152v-166h152v-369h-453q-52 -14 -113 -14q-172 0 -292.5 116t-120.5 297z" />
    <glyph glyph-name="oe" unicode="&#x153;" horiz-adv-x="1028" 
d="M463 1049h-49v-664h49v664zM25 399v635q0 181 120.5 297.5t292.5 116.5q61 0 113 -14h453v-369h-152v-172h152v-358h-152v-166h152v-369h-453q-52 -14 -113 -14q-172 0 -292.5 116t-120.5 297z" />
    <glyph glyph-name="Racute" unicode="&#x154;" 
d="M438 1434q172 0 293 -116t121 -296v-133q0 -41 -16 -108.5t-39 -104.5q22 -34 38.5 -92.5t16.5 -124.5v-459h-389v475h-49v-475h-389v1434h413zM262 1483l31 307h321l-69 -307h-283zM414 834h49v241h-49v-241z" />
    <glyph glyph-name="racute" unicode="&#x155;" 
d="M438 1434q172 0 293 -116t121 -296v-133q0 -41 -16 -108.5t-39 -104.5q22 -34 38.5 -92.5t16.5 -124.5v-459h-389v475h-49v-475h-389v1434h413zM262 1483l31 307h321l-69 -307h-283zM414 834h49v241h-49v-241z" />
    <glyph glyph-name="uni0156" unicode="&#x156;" 
d="M438 1434q172 0 293 -116t121 -296v-133q0 -41 -16 -108.5t-39 -104.5q22 -34 38.5 -92.5t16.5 -124.5v-459h-389v475h-49v-475h-389v1434h413zM260 -502l55 176h-55v273h361v-273l-56 -176h-305zM414 834h49v241h-49v-241z" />
    <glyph glyph-name="uni0157" unicode="&#x157;" 
d="M438 1434q172 0 293 -116t121 -296v-133q0 -41 -16 -108.5t-39 -104.5q22 -34 38.5 -92.5t16.5 -124.5v-459h-389v475h-49v-475h-389v1434h413zM260 -502l55 176h-55v273h361v-273l-56 -176h-305zM414 834h49v241h-49v-241z" />
    <glyph glyph-name="Rcaron" unicode="&#x158;" 
d="M438 1434q172 0 293 -116t121 -296v-133q0 -41 -16 -108.5t-39 -104.5q22 -34 38.5 -92.5t16.5 -124.5v-459h-389v475h-49v-475h-389v1434h413zM109 1790h258l41 -127h20l41 127h258l-102 -307h-414zM414 834h49v241h-49v-241z" />
    <glyph glyph-name="rcaron" unicode="&#x159;" 
d="M438 1434q172 0 293 -116t121 -296v-133q0 -41 -16 -108.5t-39 -104.5q22 -34 38.5 -92.5t16.5 -124.5v-459h-389v475h-49v-475h-389v1434h413zM109 1790h258l41 -127h20l41 127h258l-102 -307h-414zM414 834h49v241h-49v-241z" />
    <glyph glyph-name="Sacute" unicode="&#x15a;" horiz-adv-x="868" 
d="M434 -8q-178 0 -293.5 102t-115.5 281v100h385v-113h49v144l-244 72q-43 13 -70.5 26t-58.5 38t-46 65t-15 96v262q0 178 118 280.5t291 102.5q178 0 294 -102t116 -281v-113h-385v125h-49v-147l260 -76q174 -53 174 -209v-270q0 -119 -57 -207.5t-149 -132t-204 -43.5z
M281 1483l30 307h322l-70 -307h-282z" />
    <glyph glyph-name="sacute" unicode="&#x15b;" horiz-adv-x="868" 
d="M434 -8q-178 0 -293.5 102t-115.5 281v100h385v-113h49v144l-244 72q-43 13 -70.5 26t-58.5 38t-46 65t-15 96v262q0 178 118 280.5t291 102.5q178 0 294 -102t116 -281v-113h-385v125h-49v-147l260 -76q174 -53 174 -209v-270q0 -119 -57 -207.5t-149 -132t-204 -43.5z
M281 1483l30 307h322l-70 -307h-282z" />
    <glyph glyph-name="Scircumflex" unicode="&#x15c;" horiz-adv-x="868" 
d="M434 -8q-178 0 -293.5 102t-115.5 281v100h385v-113h49v144l-244 72q-43 13 -70.5 26t-58.5 38t-46 65t-15 96v262q0 178 118 280.5t291 102.5q178 0 294 -102t116 -281v-113h-385v125h-49v-147l260 -76q174 -53 174 -209v-270q0 -119 -57 -207.5t-149 -132t-204 -43.5z
M125 1483l102 307h414l102 -307h-258l-41 127h-20l-41 -127h-258z" />
    <glyph glyph-name="scircumflex" unicode="&#x15d;" horiz-adv-x="868" 
d="M434 -8q-178 0 -293.5 102t-115.5 281v100h385v-113h49v144l-244 72q-43 13 -70.5 26t-58.5 38t-46 65t-15 96v262q0 178 118 280.5t291 102.5q178 0 294 -102t116 -281v-113h-385v125h-49v-147l260 -76q174 -53 174 -209v-270q0 -119 -57 -207.5t-149 -132t-204 -43.5z
M125 1483l102 307h414l102 -307h-258l-41 127h-20l-41 -127h-258z" />
    <glyph glyph-name="Scedilla" unicode="&#x15e;" horiz-adv-x="868" 
d="M297 -348v147h186v58h-186v153q-125 35 -198.5 129t-73.5 236v100h385v-113h49v144l-244 72q-43 13 -70.5 26t-58.5 38t-46 65t-15 96v262q0 178 118 280.5t291 102.5q178 0 294 -102t116 -281v-113h-385v125h-49v-147l260 -76q174 -53 174 -209v-270q0 -145 -80.5 -241
t-210.5 -128v-26q56 -9 92.5 -52.5t36.5 -101.5q0 -78 -45.5 -126t-122.5 -48h-217z" />
    <glyph glyph-name="scedilla" unicode="&#x15f;" horiz-adv-x="868" 
d="M297 -348v147h186v58h-186v153q-125 35 -198.5 129t-73.5 236v100h385v-113h49v144l-244 72q-43 13 -70.5 26t-58.5 38t-46 65t-15 96v262q0 178 118 280.5t291 102.5q178 0 294 -102t116 -281v-113h-385v125h-49v-147l260 -76q174 -53 174 -209v-270q0 -145 -80.5 -241
t-210.5 -128v-26q56 -9 92.5 -52.5t36.5 -101.5q0 -78 -45.5 -126t-122.5 -48h-217z" />
    <glyph glyph-name="Scaron" unicode="&#x160;" horiz-adv-x="868" 
d="M434 -8q-178 0 -293.5 102t-115.5 281v100h385v-113h49v144l-244 72q-43 13 -70.5 26t-58.5 38t-46 65t-15 96v262q0 178 118 280.5t291 102.5q178 0 294 -102t116 -281v-113h-385v125h-49v-147l260 -76q174 -53 174 -209v-270q0 -119 -57 -207.5t-149 -132t-204 -43.5z
M127 1790h258l41 -127h20l41 127h258l-102 -307h-414z" />
    <glyph glyph-name="scaron" unicode="&#x161;" horiz-adv-x="868" 
d="M434 -8q-178 0 -293.5 102t-115.5 281v100h385v-113h49v144l-244 72q-43 13 -70.5 26t-58.5 38t-46 65t-15 96v262q0 178 118 280.5t291 102.5q178 0 294 -102t116 -281v-113h-385v125h-49v-147l260 -76q174 -53 174 -209v-270q0 -119 -57 -207.5t-149 -132t-204 -43.5z
M127 1790h258l41 -127h20l41 127h258l-102 -307h-414z" />
    <glyph glyph-name="uni0162" unicode="&#x162;" horiz-adv-x="692" 
d="M150 0v1051h-125v383h643v-383h-129v-1051h-78v-20q56 -9 92.5 -52.5t36.5 -101.5q0 -78 -45.5 -126t-122.5 -48h-217v147h186v58h-186v143h-55z" />
    <glyph glyph-name="uni0163" unicode="&#x163;" horiz-adv-x="692" 
d="M150 0v1051h-125v383h643v-383h-129v-1051h-78v-20q56 -9 92.5 -52.5t36.5 -101.5q0 -78 -45.5 -126t-122.5 -48h-217v147h186v58h-186v143h-55z" />
    <glyph glyph-name="Tcaron" unicode="&#x164;" horiz-adv-x="692" 
d="M150 0v1051h-125v383h643v-383h-129v-1051h-389zM47 1790h258l41 -127h21l41 127h258l-103 -307h-413z" />
    <glyph glyph-name="tcaron" unicode="&#x165;" horiz-adv-x="692" 
d="M150 0v1051h-125v383h643v-383h-129v-1051h-389zM47 1790h258l41 -127h21l41 127h258l-103 -307h-413z" />
    <glyph glyph-name="Tbar" unicode="&#x166;" horiz-adv-x="692" 
d="M37 549v328h113v174h-125v383h643v-383h-129v-174h116v-328h-116v-549h-389v549h-113z" />
    <glyph glyph-name="tbar" unicode="&#x167;" horiz-adv-x="692" 
d="M150 0v1051h-125v383h643v-383h-129v-1051h-389z" />
    <glyph glyph-name="Utilde" unicode="&#x168;" 
d="M463 1434h389v-1035q0 -120 -56.5 -215.5t-151 -146.5t-206.5 -51q-172 0 -292.5 116t-120.5 297v1035h389v-1049h49v1049zM139 1491v137q0 80 55 135.5t136 55.5q67 0 123 -45l53 -43h20v81h213v-139q0 -78 -55 -133t-133 -55q-71 0 -125 45l-53 45h-21v-84h-213z" />
    <glyph glyph-name="utilde" unicode="&#x169;" 
d="M463 1434h389v-1035q0 -120 -56.5 -215.5t-151 -146.5t-206.5 -51q-172 0 -292.5 116t-120.5 297v1035h389v-1049h49v1049zM139 1491v137q0 80 55 135.5t136 55.5q67 0 123 -45l53 -43h20v81h213v-139q0 -78 -55 -133t-133 -55q-71 0 -125 45l-53 45h-21v-84h-213z" />
    <glyph glyph-name="Umacron" unicode="&#x16a;" 
d="M463 1434h389v-1035q0 -120 -56.5 -215.5t-151 -146.5t-206.5 -51q-172 0 -292.5 116t-120.5 297v1035h389v-1049h49v1049zM164 1483v270h549v-270h-549z" />
    <glyph glyph-name="umacron" unicode="&#x16b;" 
d="M463 1434h389v-1035q0 -120 -56.5 -215.5t-151 -146.5t-206.5 -51q-172 0 -292.5 116t-120.5 297v1035h389v-1049h49v1049zM164 1483v270h549v-270h-549z" />
    <glyph glyph-name="Ubreve" unicode="&#x16c;" 
d="M463 1434h389v-1035q0 -120 -56.5 -215.5t-151 -146.5t-206.5 -51q-172 0 -292.5 116t-120.5 297v1035h389v-1049h49v1049zM174 1700v90h240v-119h49v119h239v-90q0 -62 -25 -108.5t-65.5 -71t-84.5 -36t-91 -11.5q-35 0 -70 6.5t-70 23.5t-61.5 42t-43.5 65t-17 90z" />
    <glyph glyph-name="ubreve" unicode="&#x16d;" 
d="M463 1434h389v-1035q0 -120 -56.5 -215.5t-151 -146.5t-206.5 -51q-172 0 -292.5 116t-120.5 297v1035h389v-1049h49v1049zM174 1700v90h240v-119h49v119h239v-90q0 -62 -25 -108.5t-65.5 -71t-84.5 -36t-91 -11.5q-35 0 -70 6.5t-70 23.5t-61.5 42t-43.5 65t-17 90z" />
    <glyph glyph-name="Uring" unicode="&#x16e;" 
d="M463 1434h389v-1035q0 -120 -56.5 -215.5t-151 -146.5t-206.5 -51q-172 0 -292.5 116t-120.5 297v1035h389v-1049h49v1049zM219 1694q0 91 61 151t158 60q90 0 150.5 -60.5t60.5 -150.5q0 -96 -60 -157.5t-151 -61.5q-98 0 -158.5 61t-60.5 158zM406 1638h57v103h-57
v-103z" />
    <glyph glyph-name="uring" unicode="&#x16f;" 
d="M463 1434h389v-1035q0 -120 -56.5 -215.5t-151 -146.5t-206.5 -51q-172 0 -292.5 116t-120.5 297v1035h389v-1049h49v1049zM219 1694q0 91 61 151t158 60q90 0 150.5 -60.5t60.5 -150.5q0 -96 -60 -157.5t-151 -61.5q-98 0 -158.5 61t-60.5 158zM406 1638h57v103h-57
v-103z" />
    <glyph glyph-name="Uhungarumlaut" unicode="&#x170;" 
d="M463 1434h389v-1035q0 -120 -56.5 -215.5t-151 -146.5t-206.5 -51q-172 0 -292.5 116t-120.5 297v1035h389v-1049h49v1049zM121 1483l31 307h297l-41 -307h-287zM461 1483l43 307h305l-70 -307h-278z" />
    <glyph glyph-name="uhungarumlaut" unicode="&#x171;" 
d="M463 1434h389v-1035q0 -120 -56.5 -215.5t-151 -146.5t-206.5 -51q-172 0 -292.5 116t-120.5 297v1035h389v-1049h49v1049zM121 1483l31 307h297l-41 -307h-287zM461 1483l43 307h305l-70 -307h-278z" />
    <glyph glyph-name="Uogonek" unicode="&#x172;" 
d="M559 -41q-14 -23 -14 -37q0 -15 10.5 -25t24.5 -10h4v-235h-144q-118 0 -177.5 54t-59.5 144q0 56 47 136l18 34q-110 45 -176.5 146t-66.5 233v1035h389v-1049h49v1049h389v-1035q0 -136 -71 -238.5t-187 -146.5z" />
    <glyph glyph-name="uogonek" unicode="&#x173;" 
d="M463 1434h389v-1035q0 -120 -56.5 -215.5t-151 -146.5t-206.5 -51q-172 0 -292.5 116t-120.5 297v1035h389v-1049h49v1049z" />
    <glyph glyph-name="Wcircumflex" unicode="&#x174;" horiz-adv-x="1601" 
d="M12 1434h383l54 -1076h20l23 1076h618l23 -1076h20l53 1076h383l-80 -1434h-669l-29 1083h-20l-29 -1083h-670zM492 1483l102 307h414l102 -307h-258l-41 127h-20l-41 -127h-258z" />
    <glyph glyph-name="wcircumflex" unicode="&#x175;" horiz-adv-x="1601" 
d="M12 1434h383l54 -1076h20l23 1076h618l23 -1076h20l53 1076h383l-80 -1434h-669l-29 1083h-20l-29 -1083h-670zM492 1483l102 307h414l102 -307h-258l-41 127h-20l-41 -127h-258z" />
    <glyph glyph-name="Ycircumflex" unicode="&#x176;" horiz-adv-x="864" 
d="M238 0v412h-166l-60 1022h377l33 -674h20l33 674h377l-59 -1022h-166v-412h-389zM123 1483l102 307h414l102 -307h-258l-41 127h-20l-41 -127h-258z" />
    <glyph glyph-name="ycircumflex" unicode="&#x177;" horiz-adv-x="864" 
d="M238 0v412h-166l-60 1022h377l33 -674h20l33 674h377l-59 -1022h-166v-412h-389zM123 1483l102 307h414l102 -307h-258l-41 127h-20l-41 -127h-258z" />
    <glyph glyph-name="Ydieresis" unicode="&#x178;" horiz-adv-x="864" 
d="M238 0v412h-166l-60 1022h377l33 -674h20l33 674h377l-59 -1022h-166v-412h-389zM123 1483v307h285v-307h-285zM457 1483v307h284v-307h-284z" />
    <glyph glyph-name="Zacute" unicode="&#x179;" horiz-adv-x="712" 
d="M25 0v358l260 717h-260v359h663v-359l-258 -717h258v-358h-663zM211 1483l31 307h321l-69 -307h-283z" />
    <glyph glyph-name="zacute" unicode="&#x17a;" horiz-adv-x="712" 
d="M25 0v358l260 717h-260v359h663v-359l-258 -717h258v-358h-663zM211 1483l31 307h321l-69 -307h-283z" />
    <glyph glyph-name="Zdotaccent" unicode="&#x17b;" horiz-adv-x="712" 
d="M25 0v358l260 717h-260v359h663v-359l-258 -717h258v-358h-663zM219 1483v307h287v-307h-287z" />
    <glyph glyph-name="zdotaccent" unicode="&#x17c;" horiz-adv-x="712" 
d="M25 0v358l260 717h-260v359h663v-359l-258 -717h258v-358h-663zM219 1483v307h287v-307h-287z" />
    <glyph glyph-name="Zcaron" unicode="&#x17d;" horiz-adv-x="712" 
d="M25 0v358l260 717h-260v359h663v-359l-258 -717h258v-358h-663zM57 1790h258l41 -127h21l41 127h258l-103 -307h-413z" />
    <glyph glyph-name="zcaron" unicode="&#x17e;" horiz-adv-x="712" 
d="M25 0v358l260 717h-260v359h663v-359l-258 -717h258v-358h-663zM57 1790h258l41 -127h21l41 127h258l-103 -307h-413z" />
    <glyph glyph-name="uni01CD" unicode="&#x1cd;" horiz-adv-x="905" 
d="M12 0l76 1434h729l76 -1434h-377l-14 299h-99l-14 -299h-377zM145 1790h258l41 -127h21l41 127h258l-102 -307h-414zM422 657h61l-20 408h-21z" />
    <glyph glyph-name="uni01CE" unicode="&#x1ce;" horiz-adv-x="905" 
d="M12 0l76 1434h729l76 -1434h-377l-14 299h-99l-14 -299h-377zM145 1790h258l41 -127h21l41 127h258l-102 -307h-414zM422 657h61l-20 408h-21z" />
    <glyph glyph-name="uni01CF" unicode="&#x1cf;" horiz-adv-x="438" 
d="M25 0v1434h389v-1434h-389zM-86 1790h258l41 -127h20l41 127h258l-102 -307h-414z" />
    <glyph glyph-name="uni01D0" unicode="&#x1d0;" horiz-adv-x="438" 
d="M25 0v1434h389v-1434h-389zM-86 1790h258l41 -127h20l41 127h258l-102 -307h-414z" />
    <glyph glyph-name="uni01D1" unicode="&#x1d1;" 
d="M463 1049h-49v-664h49v664zM25 399v635q0 181 120.5 297.5t292.5 116.5t293 -116.5t121 -297.5v-635q0 -120 -56.5 -215.5t-151 -146.5t-206.5 -51q-172 0 -292.5 116t-120.5 297zM131 1790h258l41 -127h21l41 127h258l-103 -307h-414z" />
    <glyph glyph-name="uni01D2" unicode="&#x1d2;" 
d="M463 1049h-49v-664h49v664zM25 399v635q0 181 120.5 297.5t292.5 116.5t293 -116.5t121 -297.5v-635q0 -120 -56.5 -215.5t-151 -146.5t-206.5 -51q-172 0 -292.5 116t-120.5 297zM131 1790h258l41 -127h21l41 127h258l-103 -307h-414z" />
    <glyph glyph-name="Gcaron" unicode="&#x1e6;" 
d="M25 1034q0 181 120.5 297.5t292.5 116.5t293 -116.5t121 -297.5v-188h-389v203h-49v-664h49v119h-25v297h414v-402q0 -120 -56.5 -215.5t-151 -146.5t-206.5 -51q-172 0 -292.5 116t-120.5 297v635zM129 1790h258l41 -127h21l40 127h259l-103 -307h-414z" />
    <glyph glyph-name="gcaron" unicode="&#x1e7;" 
d="M25 1034q0 181 120.5 297.5t292.5 116.5t293 -116.5t121 -297.5v-188h-389v203h-49v-664h49v119h-25v297h414v-402q0 -120 -56.5 -215.5t-151 -146.5t-206.5 -51q-172 0 -292.5 116t-120.5 297v635zM129 1790h258l41 -127h21l40 127h259l-103 -307h-414z" />
    <glyph glyph-name="uni0218" unicode="&#x218;" horiz-adv-x="868" 
d="M434 -8q-178 0 -293.5 102t-115.5 281v100h385v-113h49v144l-244 72q-43 13 -70.5 26t-58.5 38t-46 65t-15 96v262q0 178 118 280.5t291 102.5q178 0 294 -102t116 -281v-113h-385v125h-49v-147l260 -76q174 -53 174 -209v-270q0 -119 -57 -207.5t-149 -132t-204 -43.5z
M258 -502l55 176h-55v273h360v-273l-55 -176h-305z" />
    <glyph glyph-name="uni0219" unicode="&#x219;" horiz-adv-x="868" 
d="M434 -8q-178 0 -293.5 102t-115.5 281v100h385v-113h49v144l-244 72q-43 13 -70.5 26t-58.5 38t-46 65t-15 96v262q0 178 118 280.5t291 102.5q178 0 294 -102t116 -281v-113h-385v125h-49v-147l260 -76q174 -53 174 -209v-270q0 -119 -57 -207.5t-149 -132t-204 -43.5z
M258 -502l55 176h-55v273h360v-273l-55 -176h-305z" />
    <glyph glyph-name="uni021A" unicode="&#x21a;" horiz-adv-x="692" 
d="M150 0v1051h-125v383h643v-383h-129v-1051h-389zM166 -502l55 176h-55v273h360v-273l-55 -176h-305z" />
    <glyph glyph-name="uni021B" unicode="&#x21b;" horiz-adv-x="692" 
d="M150 0v1051h-125v383h643v-383h-129v-1051h-389zM166 -502l55 176h-55v273h360v-273l-55 -176h-305z" />
    <glyph glyph-name="circumflex" unicode="&#x2c6;" horiz-adv-x="667" 
d="M385 1151l-41 127h-20l-41 -127h-258l102 307h414l102 -307h-258z" />
    <glyph glyph-name="caron" unicode="&#x2c7;" horiz-adv-x="667" 
d="M283 1458l41 -127h20l41 127h258l-102 -307h-414l-102 307h258z" />
    <glyph glyph-name="breve" unicode="&#x2d8;" horiz-adv-x="577" 
d="M287 1141q-35 0 -70 6.5t-70 23.5t-61.5 42t-43.5 65t-17 90v90h239v-119h49v119h240v-90q0 -62 -25 -108.5t-65.5 -71t-84.5 -36t-91 -11.5z" />
    <glyph glyph-name="dotaccent" unicode="&#x2d9;" horiz-adv-x="335" 
d="M25 1151v307h286v-307h-286z" />
    <glyph glyph-name="ring" unicode="&#x2da;" horiz-adv-x="479" 
d="M244 1143q-98 0 -158.5 61t-60.5 158q0 91 61 151t158 60q90 0 150.5 -60.5t60.5 -150.5q0 -96 -60 -157.5t-151 -61.5zM211 1307h57v102h-57v-102z" />
    <glyph glyph-name="ogonek" unicode="&#x2db;" horiz-adv-x="430" 
d="M381 -41q-14 -23 -14 -37q0 -15 10 -25t24 -10h5v-235h-144q-118 0 -177.5 54t-59.5 144q0 59 47 136l8 14h326z" />
    <glyph glyph-name="tilde" unicode="&#x2dc;" horiz-adv-x="649" 
d="M311 1198l-53 45h-20v-84h-213v137q0 80 54.5 135.5t135.5 55.5q67 0 123 -45l53 -43h21v82h213v-140q0 -78 -55.5 -133t-133.5 -55q-71 0 -125 45z" />
    <glyph glyph-name="hungarumlaut" unicode="&#x2dd;" horiz-adv-x="737" 
d="M25 1151l30 307h297l-41 -307h-286zM365 1151l43 307h305l-70 -307h-278z" />
    <glyph glyph-name="uni0312" unicode="&#x312;" horiz-adv-x="0" 
d="M385 1610l-55 -176h55v-273h-360v273l55 176h305z" />
    <glyph glyph-name="uni0326" unicode="&#x326;" horiz-adv-x="0" 
d="M-57 -502l55 176h-55v273h360v-273l-55 -176h-305z" />
    <glyph glyph-name="Wgrave" unicode="&#x1e80;" horiz-adv-x="1601" 
d="M12 1434h383l54 -1076h20l23 1076h618l23 -1076h20l53 1076h383l-80 -1434h-669l-29 1083h-20l-29 -1083h-670zM614 1790h322l31 -307h-283z" />
    <glyph glyph-name="wgrave" unicode="&#x1e81;" horiz-adv-x="1601" 
d="M12 1434h383l54 -1076h20l23 1076h618l23 -1076h20l53 1076h383l-80 -1434h-669l-29 1083h-20l-29 -1083h-670zM614 1790h322l31 -307h-283z" />
    <glyph glyph-name="Wacute" unicode="&#x1e82;" horiz-adv-x="1601" 
d="M12 1434h383l54 -1076h20l23 1076h618l23 -1076h20l53 1076h383l-80 -1434h-669l-29 1083h-20l-29 -1083h-670zM647 1483l31 307h321l-69 -307h-283z" />
    <glyph glyph-name="wacute" unicode="&#x1e83;" horiz-adv-x="1601" 
d="M12 1434h383l54 -1076h20l23 1076h618l23 -1076h20l53 1076h383l-80 -1434h-669l-29 1083h-20l-29 -1083h-670zM647 1483l31 307h321l-69 -307h-283z" />
    <glyph glyph-name="Wdieresis" unicode="&#x1e84;" horiz-adv-x="1601" 
d="M12 1434h383l54 -1076h20l23 1076h618l23 -1076h20l53 1076h383l-80 -1434h-669l-29 1083h-20l-29 -1083h-670zM492 1483v307h284v-307h-284zM825 1483v307h285v-307h-285z" />
    <glyph glyph-name="wdieresis" unicode="&#x1e85;" horiz-adv-x="1601" 
d="M12 1434h383l54 -1076h20l23 1076h618l23 -1076h20l53 1076h383l-80 -1434h-669l-29 1083h-20l-29 -1083h-670zM492 1483v307h284v-307h-284zM825 1483v307h285v-307h-285z" />
    <glyph glyph-name="uni1E9E" unicode="&#x1e9e;" horiz-adv-x="868" 
d="M25 1065q0 179 115.5 281t293.5 102q112 0 204 -43.5t149 -132t57 -207.5v-197q0 -97 -51 -151q51 -54 51 -152v-182q0 -184 -106.5 -283.5t-303.5 -99.5v371h25v159h-25v373h25v174h-49v-1077h-385v1065z" />
    <glyph glyph-name="uni1EBC" unicode="&#x1ebc;" horiz-adv-x="589" 
d="M25 0v1434h540v-369h-151v-172h151v-358h-151v-166h151v-369h-540zM-2 1491v137q0 80 54.5 135.5t135.5 55.5q67 0 123 -45l54 -43h20v81h213v-139q0 -78 -55 -133t-133 -55q-71 0 -125 45l-54 45h-20v-84h-213z" />
    <glyph glyph-name="uni1EBD" unicode="&#x1ebd;" horiz-adv-x="589" 
d="M25 0v1434h540v-369h-151v-172h151v-358h-151v-166h151v-369h-540zM-2 1491v137q0 80 54.5 135.5t135.5 55.5q67 0 123 -45l54 -43h20v81h213v-139q0 -78 -55 -133t-133 -55q-71 0 -125 45l-54 45h-20v-84h-213z" />
    <glyph glyph-name="Ygrave" unicode="&#x1ef2;" horiz-adv-x="864" 
d="M238 0v412h-166l-60 1022h377l33 -674h20l33 674h377l-59 -1022h-166v-412h-389zM246 1790h321l31 -307h-283z" />
    <glyph glyph-name="ygrave" unicode="&#x1ef3;" horiz-adv-x="864" 
d="M238 0v412h-166l-60 1022h377l33 -674h20l33 674h377l-59 -1022h-166v-412h-389zM246 1790h321l31 -307h-283z" />
    <glyph glyph-name="endash" unicode="&#x2013;" horiz-adv-x="868" 
d="M25 860h819v-317h-819v317z" />
    <glyph glyph-name="emdash" unicode="&#x2014;" horiz-adv-x="1255" 
d="M25 860h1206v-317h-1206v317z" />
    <glyph glyph-name="quoteleft" unicode="&#x2018;" horiz-adv-x="438" 
d="M414 1434l-84 -320h84v-409h-389v409l84 320h305z" />
    <glyph glyph-name="quoteright" unicode="&#x2019;" horiz-adv-x="438" 
d="M25 705l84 319h-84v410h389v-410l-84 -319h-305z" />
    <glyph glyph-name="quotesinglbase" unicode="&#x201a;" horiz-adv-x="438" 
d="M25 -319l84 319h-84v410h389v-410l-84 -319h-305z" />
    <glyph glyph-name="quotedblleft" unicode="&#x201c;" 
d="M414 1434l-84 -320h84v-409h-389v409l84 320h305zM463 705v409l84 320h305l-84 -320h84v-409h-389z" />
    <glyph glyph-name="quotedblright" unicode="&#x201d;" 
d="M463 705l84 319h-84v410h389v-410l-84 -319h-305zM25 705l84 319h-84v410h389v-410l-84 -319h-305z" />
    <glyph glyph-name="quotedblbase" unicode="&#x201e;" 
d="M463 -319l84 319h-84v410h389v-410l-84 -319h-305zM25 -319l84 319h-84v410h389v-410l-84 -319h-305z" />
    <glyph glyph-name="dagger" unicode="&#x2020;" horiz-adv-x="649" 
d="M176 401v541h-151v287h151v205h297v-205h152v-287h-152v-541h-297z" />
    <glyph glyph-name="daggerdbl" unicode="&#x2021;" horiz-adv-x="649" 
d="M176 401v205h-151v287h151v49h-151v287h151v205h297v-205h152v-287h-152v-49h152v-287h-152v-205h-297z" />
    <glyph glyph-name="ellipsis" unicode="&#x2026;" horiz-adv-x="1314" 
d="M463 0v410h389v-410h-389zM25 0v410h389v-410h-389zM901 0v410h389v-410h-389z" />
    <glyph glyph-name="perthousand" unicode="&#x2030;" horiz-adv-x="2035" 
d="M1737 -14q-117 0 -197 77.5t-80 198.5v174q0 120 80 197.5t197 77.5q116 0 195 -77.5t79 -197.5v-174q0 -121 -79 -198.5t-195 -77.5zM25 999v175q0 120 79.5 197t196.5 77q116 0 195 -77t79 -197v-175q0 -121 -79 -198.5t-195 -77.5q-117 0 -196.5 77.5t-79.5 198.5z
M274 987h50v197h-50v-197zM399 0l340 1434h297l-340 -1434h-297zM860 262v174q0 120 80 197.5t197 77.5q116 0 195 -77.5t79 -197.5v-174q0 -121 -79 -198.5t-195 -77.5q-117 0 -197 77.5t-80 198.5zM1110 250h49v196h-49v-196zM1710 250h49v196h-49v-196z" />
    <glyph glyph-name="guilsinglleft" unicode="&#x2039;" horiz-adv-x="495" 
d="M162 391l-137 324l137 329h309l-135 -329l135 -324h-309z" />
    <glyph glyph-name="guilsinglright" unicode="&#x203a;" horiz-adv-x="495" 
d="M334 391h-309l135 324l-135 329h309l137 -329z" />
    <glyph glyph-name="fraction" unicode="&#x2044;" horiz-adv-x="677" 
d="M12 -41l281 1516h373l-281 -1516h-373z" />
    <glyph glyph-name="Euro" unicode="&#x20ac;" 
d="M438 -14q-172 0 -292.5 116t-120.5 297v119h-25v174h25v49h-25v174h25v119q0 181 120.5 297.5t292.5 116.5t293 -116.5t121 -297.5v-69h-389v84h-49v-134h434v-174h-434v-49h434v-174h-434v-133h49v84h389v-70q0 -120 -56.5 -215.5t-151 -146.5t-206.5 -51z" />
    <glyph glyph-name="trademark" unicode="&#x2122;" horiz-adv-x="1394" 
d="M109 733v486h-84v215h440v-215h-84v-486h-272zM514 733v701h395l29 -486h8l29 486h395v-701h-209v486h-20l-31 -486h-336l-31 486h-20v-486h-209z" />
    <glyph glyph-name="arrowleft" unicode="&#x2190;" horiz-adv-x="1490" 
d="M436 1122h465l-211 -211h776v-401h-776l211 -211h-465l-411 412z" />
    <glyph glyph-name="arrowup" unicode="&#x2191;" horiz-adv-x="872" 
d="M25 1030l411 412l412 -412v-465l-211 211v-776h-401v776l-211 -211v465z" />
    <glyph glyph-name="arrowright" unicode="&#x2192;" horiz-adv-x="1490" 
d="M1055 1122l411 -411l-411 -412h-465l211 211h-776v401h776l-211 211h465z" />
    <glyph glyph-name="arrowdown" unicode="&#x2193;" horiz-adv-x="872" 
d="M25 403v465l211 -211v777h401v-777l211 211v-465l-412 -411z" />
    <glyph glyph-name="uni2196" unicode="&#x2196;" horiz-adv-x="1210" 
d="M606 1434l328 -328h-297l549 -549l-285 -285l-549 549v-299l-327 330v582h581z" />
    <glyph glyph-name="uni2197" unicode="&#x2197;" horiz-adv-x="1210" 
d="M604 1434h582v-582l-328 -330v299l-549 -549l-284 285l548 549h-297z" />
    <glyph glyph-name="uni2198" unicode="&#x2198;" horiz-adv-x="1210" 
d="M604 0l-328 328h297l-548 549l284 284l549 -549v299l328 -329v-582h-582z" />
    <glyph glyph-name="uni2199" unicode="&#x2199;" horiz-adv-x="1210" 
d="M606 2h-581v582l327 329v-299l549 549l285 -284l-549 -549h297z" />
    <glyph glyph-name="minus" unicode="&#x2212;" 
d="M25 573v297h827v-297h-827z" />
    <glyph glyph-name="notequal" unicode="&#x2260;" 
d="M133 274l45 127h-153v297h260l18 50h-278v296h385l45 125h286l-43 -125h154v-296h-258l-16 -50h274v-297h-377l-45 -127h-297z" />
    <glyph glyph-name="lessequal" unicode="&#x2264;" 
d="M25 1034l827 266v-311l-565 -164l565 -163v-312l-827 266v418zM25 0v297h827v-297h-827z" />
    <glyph glyph-name="greaterequal" unicode="&#x2265;" 
d="M852 616l-827 -266v312l565 163l-565 164v311l827 -266v-418zM25 0v297h827v-297h-827z" />
    <glyph glyph-name="i.loclTRK" horiz-adv-x="438" 
d="M25 0v1434h389v-1434h-389zM76 1483v307h286v-307h-286z" />
    <glyph glyph-name="arrowright.ss01" horiz-adv-x="2557" 
d="M1767 0h-647l455 449h-1550v534h1550l-455 449h647l766 -715z" />
    <glyph glyph-name="arrowleft.ss01" horiz-adv-x="2537" 
d="M780 0l-766 717l766 715h647l-454 -449h1550v-534h-1550l454 -449h-647z" />
    <glyph glyph-name="arrowright.ss02" horiz-adv-x="1228" 
d="M401 242v280h-376v398h376v278l803 -477z" />
    <glyph glyph-name="arrowleft.ss02" horiz-adv-x="1228" 
d="M827 242l-802 479l802 477v-278h377v-398h-377v-280z" />
    <glyph glyph-name="caron.alt" horiz-adv-x="344" 
d="M25 924l20 510h274l-32 -510h-262z" />
    <glyph glyph-name="NUL" horiz-adv-x="2150" 
 />
    </font>
</defs>
</svg>
